<mxfile host="app.diagrams.net" agent="Mozilla/5.0 (Macintosh; Intel Mac OS X 10_15_7) AppleWebKit/537.36 (KHTML, like Gecko) Chrome/132.0.0.0 Safari/537.36" version="26.0.10">
  <diagram name="Page-1" id="FYcDJvdJx6veC8wbs22w">
    <mxGraphModel dx="1366" dy="921" grid="1" gridSize="10" guides="1" tooltips="1" connect="1" arrows="1" fold="1" page="1" pageScale="1" pageWidth="827" pageHeight="1169" math="0" shadow="0">
      <root>
        <mxCell id="0" />
        <mxCell id="1" parent="0" />
        <mxCell id="WlUhy80mDrtcPT5jhz1v-1" value="Region - ap-southeast-1" style="points=[[0,0],[0.25,0],[0.5,0],[0.75,0],[1,0],[1,0.25],[1,0.5],[1,0.75],[1,1],[0.75,1],[0.5,1],[0.25,1],[0,1],[0,0.75],[0,0.5],[0,0.25]];outlineConnect=0;gradientColor=none;html=1;whiteSpace=wrap;fontSize=12;fontStyle=0;container=1;pointerEvents=0;collapsible=0;recursiveResize=0;shape=mxgraph.aws4.group;grIcon=mxgraph.aws4.group_region;strokeColor=#00A4A6;fillColor=none;verticalAlign=top;align=left;spacingLeft=30;fontColor=#147EBA;dashed=1;" vertex="1" parent="1">
          <mxGeometry x="90" y="90" width="710" height="619" as="geometry" />
        </mxCell>
        <mxCell id="WlUhy80mDrtcPT5jhz1v-2" value="VPC" style="points=[[0,0],[0.25,0],[0.5,0],[0.75,0],[1,0],[1,0.25],[1,0.5],[1,0.75],[1,1],[0.75,1],[0.5,1],[0.25,1],[0,1],[0,0.75],[0,0.5],[0,0.25]];outlineConnect=0;gradientColor=none;html=1;whiteSpace=wrap;fontSize=12;fontStyle=0;container=1;pointerEvents=0;collapsible=0;recursiveResize=0;shape=mxgraph.aws4.group;grIcon=mxgraph.aws4.group_vpc2;strokeColor=#8C4FFF;fillColor=none;verticalAlign=top;align=left;spacingLeft=30;fontColor=#AAB7B8;dashed=0;" vertex="1" parent="WlUhy80mDrtcPT5jhz1v-1">
          <mxGeometry x="30" y="40" width="610" height="480" as="geometry" />
        </mxCell>
        <mxCell id="WlUhy80mDrtcPT5jhz1v-5" value="" style="rounded=0;whiteSpace=wrap;html=1;fillColor=none;" vertex="1" parent="WlUhy80mDrtcPT5jhz1v-2">
          <mxGeometry x="80" y="80" width="440" height="290" as="geometry" />
        </mxCell>
        <mxCell id="WlUhy80mDrtcPT5jhz1v-3" value="" style="sketch=0;points=[[0,0,0],[0.25,0,0],[0.5,0,0],[0.75,0,0],[1,0,0],[0,1,0],[0.25,1,0],[0.5,1,0],[0.75,1,0],[1,1,0],[0,0.25,0],[0,0.5,0],[0,0.75,0],[1,0.25,0],[1,0.5,0],[1,0.75,0]];outlineConnect=0;fontColor=#232F3E;fillColor=#8C4FFF;strokeColor=#ffffff;dashed=0;verticalLabelPosition=bottom;verticalAlign=top;align=center;html=1;fontSize=12;fontStyle=0;aspect=fixed;shape=mxgraph.aws4.resourceIcon;resIcon=mxgraph.aws4.managed_streaming_for_kafka;" vertex="1" parent="WlUhy80mDrtcPT5jhz1v-2">
          <mxGeometry x="70" y="60" width="50" height="50" as="geometry" />
        </mxCell>
        <mxCell id="WlUhy80mDrtcPT5jhz1v-9" value="" style="rounded=1;arcSize=10;dashed=1;strokeColor=#F59D56;fillColor=none;gradientColor=none;dashPattern=8 4;strokeWidth=2;" vertex="1" parent="WlUhy80mDrtcPT5jhz1v-2">
          <mxGeometry x="80" y="80" width="130" height="290" as="geometry" />
        </mxCell>
        <mxCell id="WlUhy80mDrtcPT5jhz1v-11" value="" style="rounded=1;arcSize=10;dashed=1;strokeColor=#F59D56;fillColor=none;gradientColor=none;dashPattern=8 4;strokeWidth=2;" vertex="1" parent="WlUhy80mDrtcPT5jhz1v-2">
          <mxGeometry x="380" y="80" width="140" height="290" as="geometry" />
        </mxCell>
        <mxCell id="WlUhy80mDrtcPT5jhz1v-10" value="" style="rounded=1;arcSize=10;dashed=1;strokeColor=#F59D56;fillColor=none;gradientColor=none;dashPattern=8 4;strokeWidth=2;" vertex="1" parent="WlUhy80mDrtcPT5jhz1v-2">
          <mxGeometry x="240" y="80" width="130" height="290" as="geometry" />
        </mxCell>
        <mxCell id="WlUhy80mDrtcPT5jhz1v-12" value="" style="sketch=0;outlineConnect=0;fontColor=#232F3E;gradientColor=none;fillColor=#ED7100;strokeColor=none;dashed=0;verticalLabelPosition=bottom;verticalAlign=top;align=center;html=1;fontSize=12;fontStyle=0;aspect=fixed;pointerEvents=1;shape=mxgraph.aws4.auto_scaling2;" vertex="1" parent="WlUhy80mDrtcPT5jhz1v-2">
          <mxGeometry x="10" y="180" width="48" height="48" as="geometry" />
        </mxCell>
        <mxCell id="WlUhy80mDrtcPT5jhz1v-13" value="" style="rounded=1;arcSize=10;dashed=1;strokeColor=#F59D56;fillColor=none;gradientColor=none;dashPattern=8 4;strokeWidth=2;" vertex="1" parent="WlUhy80mDrtcPT5jhz1v-2">
          <mxGeometry x="30" y="130" width="510" height="220" as="geometry" />
        </mxCell>
        <mxCell id="WlUhy80mDrtcPT5jhz1v-14" value="" style="sketch=0;points=[[0,0,0],[0.25,0,0],[0.5,0,0],[0.75,0,0],[1,0,0],[0,1,0],[0.25,1,0],[0.5,1,0],[0.75,1,0],[1,1,0],[0,0.25,0],[0,0.5,0],[0,0.75,0],[1,0.25,0],[1,0.5,0],[1,0.75,0]];outlineConnect=0;fontColor=#232F3E;fillColor=#ED7100;strokeColor=#ffffff;dashed=0;verticalLabelPosition=bottom;verticalAlign=top;align=center;html=1;fontSize=12;fontStyle=0;aspect=fixed;shape=mxgraph.aws4.resourceIcon;resIcon=mxgraph.aws4.ec2;" vertex="1" parent="WlUhy80mDrtcPT5jhz1v-2">
          <mxGeometry x="106" y="186" width="78" height="78" as="geometry" />
        </mxCell>
        <mxCell id="WlUhy80mDrtcPT5jhz1v-15" value="" style="sketch=0;points=[[0,0,0],[0.25,0,0],[0.5,0,0],[0.75,0,0],[1,0,0],[0,1,0],[0.25,1,0],[0.5,1,0],[0.75,1,0],[1,1,0],[0,0.25,0],[0,0.5,0],[0,0.75,0],[1,0.25,0],[1,0.5,0],[1,0.75,0]];outlineConnect=0;fontColor=#232F3E;fillColor=#ED7100;strokeColor=#ffffff;dashed=0;verticalLabelPosition=bottom;verticalAlign=top;align=center;html=1;fontSize=12;fontStyle=0;aspect=fixed;shape=mxgraph.aws4.resourceIcon;resIcon=mxgraph.aws4.ec2;" vertex="1" parent="WlUhy80mDrtcPT5jhz1v-2">
          <mxGeometry x="266" y="186" width="78" height="78" as="geometry" />
        </mxCell>
        <mxCell id="WlUhy80mDrtcPT5jhz1v-16" value="" style="sketch=0;points=[[0,0,0],[0.25,0,0],[0.5,0,0],[0.75,0,0],[1,0,0],[0,1,0],[0.25,1,0],[0.5,1,0],[0.75,1,0],[1,1,0],[0,0.25,0],[0,0.5,0],[0,0.75,0],[1,0.25,0],[1,0.5,0],[1,0.75,0]];outlineConnect=0;fontColor=#232F3E;fillColor=#ED7100;strokeColor=#ffffff;dashed=0;verticalLabelPosition=bottom;verticalAlign=top;align=center;html=1;fontSize=12;fontStyle=0;aspect=fixed;shape=mxgraph.aws4.resourceIcon;resIcon=mxgraph.aws4.ec2;" vertex="1" parent="WlUhy80mDrtcPT5jhz1v-2">
          <mxGeometry x="411" y="186" width="78" height="78" as="geometry" />
        </mxCell>
        <mxCell id="WlUhy80mDrtcPT5jhz1v-17" value="" style="sketch=0;points=[[0,0,0],[0.25,0,0],[0.5,0,0],[0.75,0,0],[1,0,0],[0,1,0],[0.25,1,0],[0.5,1,0],[0.75,1,0],[1,1,0],[0,0.25,0],[0,0.5,0],[0,0.75,0],[1,0.25,0],[1,0.5,0],[1,0.75,0]];outlineConnect=0;fontColor=#232F3E;fillColor=#7AA116;strokeColor=#ffffff;dashed=0;verticalLabelPosition=bottom;verticalAlign=top;align=center;html=1;fontSize=12;fontStyle=0;aspect=fixed;shape=mxgraph.aws4.resourceIcon;resIcon=mxgraph.aws4.backup;" vertex="1" parent="WlUhy80mDrtcPT5jhz1v-1">
          <mxGeometry x="60" y="540" width="78" height="78" as="geometry" />
        </mxCell>
        <mxCell id="WlUhy80mDrtcPT5jhz1v-18" value="" style="outlineConnect=0;dashed=0;verticalLabelPosition=bottom;verticalAlign=top;align=center;html=1;shape=mxgraph.aws3.iam;fillColor=#759C3E;gradientColor=none;" vertex="1" parent="WlUhy80mDrtcPT5jhz1v-1">
          <mxGeometry x="173" y="538" width="42" height="81" as="geometry" />
        </mxCell>
        <mxCell id="WlUhy80mDrtcPT5jhz1v-36" value="Region - ap-southeast-1" style="points=[[0,0],[0.25,0],[0.5,0],[0.75,0],[1,0],[1,0.25],[1,0.5],[1,0.75],[1,1],[0.75,1],[0.5,1],[0.25,1],[0,1],[0,0.75],[0,0.5],[0,0.25]];outlineConnect=0;gradientColor=none;html=1;whiteSpace=wrap;fontSize=12;fontStyle=0;container=1;pointerEvents=0;collapsible=0;recursiveResize=0;shape=mxgraph.aws4.group;grIcon=mxgraph.aws4.group_region;strokeColor=#00A4A6;fillColor=none;verticalAlign=top;align=left;spacingLeft=30;fontColor=#147EBA;dashed=1;" vertex="1" parent="1">
          <mxGeometry x="890" y="80" width="990" height="619" as="geometry" />
        </mxCell>
        <mxCell id="WlUhy80mDrtcPT5jhz1v-37" value="VPC" style="points=[[0,0],[0.25,0],[0.5,0],[0.75,0],[1,0],[1,0.25],[1,0.5],[1,0.75],[1,1],[0.75,1],[0.5,1],[0.25,1],[0,1],[0,0.75],[0,0.5],[0,0.25]];outlineConnect=0;gradientColor=none;html=1;whiteSpace=wrap;fontSize=12;fontStyle=0;container=1;pointerEvents=0;collapsible=0;recursiveResize=0;shape=mxgraph.aws4.group;grIcon=mxgraph.aws4.group_vpc2;strokeColor=#8C4FFF;fillColor=none;verticalAlign=top;align=left;spacingLeft=30;fontColor=#AAB7B8;dashed=0;" vertex="1" parent="WlUhy80mDrtcPT5jhz1v-36">
          <mxGeometry x="70" y="40" width="755" height="480" as="geometry" />
        </mxCell>
        <mxCell id="WlUhy80mDrtcPT5jhz1v-38" value="" style="rounded=0;whiteSpace=wrap;html=1;fillColor=none;" vertex="1" parent="WlUhy80mDrtcPT5jhz1v-37">
          <mxGeometry x="195" y="103" width="495" height="337" as="geometry" />
        </mxCell>
        <mxCell id="WlUhy80mDrtcPT5jhz1v-39" value="" style="sketch=0;points=[[0,0,0],[0.25,0,0],[0.5,0,0],[0.75,0,0],[1,0,0],[0,1,0],[0.25,1,0],[0.5,1,0],[0.75,1,0],[1,1,0],[0,0.25,0],[0,0.5,0],[0,0.75,0],[1,0.25,0],[1,0.5,0],[1,0.75,0]];outlineConnect=0;fontColor=#232F3E;fillColor=#8C4FFF;strokeColor=#ffffff;dashed=0;verticalLabelPosition=bottom;verticalAlign=top;align=center;html=1;fontSize=12;fontStyle=0;aspect=fixed;shape=mxgraph.aws4.resourceIcon;resIcon=mxgraph.aws4.managed_streaming_for_kafka;" vertex="1" parent="WlUhy80mDrtcPT5jhz1v-37">
          <mxGeometry x="190" y="85" width="50" height="50" as="geometry" />
        </mxCell>
        <mxCell id="WlUhy80mDrtcPT5jhz1v-40" value="" style="rounded=1;arcSize=10;dashed=1;strokeColor=#F59D56;fillColor=none;gradientColor=none;dashPattern=8 4;strokeWidth=2;" vertex="1" parent="WlUhy80mDrtcPT5jhz1v-37">
          <mxGeometry x="195" y="105" width="130" height="290" as="geometry" />
        </mxCell>
        <mxCell id="WlUhy80mDrtcPT5jhz1v-41" value="" style="rounded=1;arcSize=10;dashed=1;strokeColor=#F59D56;fillColor=none;gradientColor=none;dashPattern=8 4;strokeWidth=2;" vertex="1" parent="WlUhy80mDrtcPT5jhz1v-37">
          <mxGeometry x="500" y="105" width="140" height="290" as="geometry" />
        </mxCell>
        <mxCell id="WlUhy80mDrtcPT5jhz1v-42" value="" style="rounded=1;arcSize=10;dashed=1;strokeColor=#F59D56;fillColor=none;gradientColor=none;dashPattern=8 4;strokeWidth=2;" vertex="1" parent="WlUhy80mDrtcPT5jhz1v-37">
          <mxGeometry x="360" y="105" width="130" height="290" as="geometry" />
        </mxCell>
        <mxCell id="WlUhy80mDrtcPT5jhz1v-43" value="" style="sketch=0;outlineConnect=0;fontColor=#232F3E;gradientColor=none;fillColor=#ED7100;strokeColor=none;dashed=0;verticalLabelPosition=bottom;verticalAlign=top;align=center;html=1;fontSize=12;fontStyle=0;aspect=fixed;pointerEvents=1;shape=mxgraph.aws4.auto_scaling2;" vertex="1" parent="WlUhy80mDrtcPT5jhz1v-37">
          <mxGeometry x="147" y="216" width="48" height="48" as="geometry" />
        </mxCell>
        <mxCell id="WlUhy80mDrtcPT5jhz1v-44" value="" style="rounded=1;arcSize=10;dashed=1;strokeColor=#F59D56;fillColor=none;gradientColor=none;dashPattern=8 4;strokeWidth=2;" vertex="1" parent="WlUhy80mDrtcPT5jhz1v-37">
          <mxGeometry x="170" y="155" width="490" height="220" as="geometry" />
        </mxCell>
        <mxCell id="WlUhy80mDrtcPT5jhz1v-45" value="" style="sketch=0;points=[[0,0,0],[0.25,0,0],[0.5,0,0],[0.75,0,0],[1,0,0],[0,1,0],[0.25,1,0],[0.5,1,0],[0.75,1,0],[1,1,0],[0,0.25,0],[0,0.5,0],[0,0.75,0],[1,0.25,0],[1,0.5,0],[1,0.75,0]];outlineConnect=0;fontColor=#232F3E;fillColor=#ED7100;strokeColor=#ffffff;dashed=0;verticalLabelPosition=bottom;verticalAlign=top;align=center;html=1;fontSize=12;fontStyle=0;aspect=fixed;shape=mxgraph.aws4.resourceIcon;resIcon=mxgraph.aws4.ec2;" vertex="1" parent="WlUhy80mDrtcPT5jhz1v-37">
          <mxGeometry x="226" y="211" width="78" height="78" as="geometry" />
        </mxCell>
        <mxCell id="WlUhy80mDrtcPT5jhz1v-46" value="" style="sketch=0;points=[[0,0,0],[0.25,0,0],[0.5,0,0],[0.75,0,0],[1,0,0],[0,1,0],[0.25,1,0],[0.5,1,0],[0.75,1,0],[1,1,0],[0,0.25,0],[0,0.5,0],[0,0.75,0],[1,0.25,0],[1,0.5,0],[1,0.75,0]];outlineConnect=0;fontColor=#232F3E;fillColor=#ED7100;strokeColor=#ffffff;dashed=0;verticalLabelPosition=bottom;verticalAlign=top;align=center;html=1;fontSize=12;fontStyle=0;aspect=fixed;shape=mxgraph.aws4.resourceIcon;resIcon=mxgraph.aws4.ec2;" vertex="1" parent="WlUhy80mDrtcPT5jhz1v-37">
          <mxGeometry x="386" y="211" width="78" height="78" as="geometry" />
        </mxCell>
        <mxCell id="WlUhy80mDrtcPT5jhz1v-47" value="" style="sketch=0;points=[[0,0,0],[0.25,0,0],[0.5,0,0],[0.75,0,0],[1,0,0],[0,1,0],[0.25,1,0],[0.5,1,0],[0.75,1,0],[1,1,0],[0,0.25,0],[0,0.5,0],[0,0.75,0],[1,0.25,0],[1,0.5,0],[1,0.75,0]];outlineConnect=0;fontColor=#232F3E;fillColor=#ED7100;strokeColor=#ffffff;dashed=0;verticalLabelPosition=bottom;verticalAlign=top;align=center;html=1;fontSize=12;fontStyle=0;aspect=fixed;shape=mxgraph.aws4.resourceIcon;resIcon=mxgraph.aws4.ec2;" vertex="1" parent="WlUhy80mDrtcPT5jhz1v-37">
          <mxGeometry x="531" y="211" width="78" height="78" as="geometry" />
        </mxCell>
        <mxCell id="WlUhy80mDrtcPT5jhz1v-50" value="" style="shape=image;verticalLabelPosition=bottom;labelBackgroundColor=default;verticalAlign=top;aspect=fixed;imageAspect=0;image=data:image/png,iVBORw0KGgoAAAANSUhEUgAAAQwAAAEKCAYAAADn1WuOAAAMP2lDQ1BJQ0MgUHJvZmlsZQAASImVVwdYU8kWnluSkJDQAghICb0JAlICSAmhhd4RbIQkQCgxBoKKHVlUcO2iAjZ0VUSxA2JHFAuLYu+LBRVlXSzYlTcpoOu+8r3zfXPvf/85858z584tA4D6Ca5YnItqAJAnKpDEhQQwxqSkMkg9AAEEQAZWgMrl5YtZMTERANrg+e/27jr0hnbFQab1z/7/app8QT4PACQG4nR+Pi8P4gMA4NU8saQAAKKMN59SIJZh2IC2BCYI8QIZzlTgahlOV+A9cp+EODbErQCoULlcSSYAapcgzyjkZUINtT6InUR8oQgAdQbEvnl5k/gQp0FsA33EEMv0mek/6GT+TTN9SJPLzRzCirnITSVQmC/O5U77P8vxvy0vVzoYwwo2apYkNE42Z1i3mzmTwmWYCnGvKD0qGmItiD8I+XJ/iFFKljQ0UeGPGvLy2bBmQBdiJz43MBxiQ4iDRblREUo+PUMYzIEYrhB0qrCAkwCxHsQLBPlB8UqfjZJJccpYaEOGhM1S8me5EnlcWaz70pxEllL/dZaAo9TH1IqyEpIhpkBsUShMioJYDWLH/Jz4cKXP6KIsdtSgj0QaJ8vfAuI4gSgkQKGPFWZIguOU/mV5+YPzxTZmCTlRSryvICshVFEfrJXHlecP54JdEohYiYM6gvwxEYNz4QsCgxRzx54JRInxSp0P4oKAOMVYnCLOjVH642aC3BAZbwaxa35hvHIsnlQAF6RCH88QF8QkKPLEi7K5YTGKfPClIAKwQSBgACls6WASyAbCjt7GXnil6AkGXCABmUAAHJTM4IhkeY8IHuNBEfgTIgHIHxoXIO8VgELIfx1iFUcHkCHvLZSPyAFPIM4D4SAXXkvlo0RD0ZLAY8gI/xGdCxsP5psLm6z/3/OD7HeGBZkIJSMdjMhQH/QkBhEDiaHEYKItboD74t54BDz6w+aCM3HPwXl89yc8IXQSHhKuEboItyYKiyU/ZRkJuqB+sLIW6T/WAreCmm54AO4D1aEyrosbAAfcFcZh4X4wshtk2cq8ZVVh/KT9txn8cDeUfmQnMkoeRvYn2/w8Us1OzW1IRVbrH+ujyDV9qN7soZ6f47N/qD4fnsN/9sQWYPuxNuwkdg47gjUCBnYca8LasaMyPLS6HstX12C0OHk+OVBH+I94g3dWVsl8pzqnHqcvir4CwVTZOxqwJ4mnSYSZWQUMFvwiCBgcEc9xBMPFycUNANn3RfH6ehMr/24guu3fuXl/AOBzfGBg4PB3Luw4AHs94ON/6Dtnw4SfDlUAzh7iSSWFCg6XHQjwLaEOnzR9YAzMgQ2cjwtwB97AHwSBMBANEkAKmACzz4LrXAKmgBlgLigF5WApWAUqwQawGWwHu8A+0AiOgJPgDLgALoFr4A5cPd3gBegD78BnBEFICA2hI/qICWKJ2CMuCBPxRYKQCCQOSUHSkExEhEiRGcg8pBxZjlQim5BaZC9yCDmJnEM6kVvIA6QHeY18QjGUimqjRqgVOhJloiw0HE1Ax6OZ6GS0CC1BF6Nr0Bp0J9qAnkQvoNfQLvQF2o8BTBXTxUwxB4yJsbFoLBXLwCTYLKwMq8BqsHqsGd7nK1gX1ot9xIk4HWfgDnAFh+KJOA+fjM/CF+GV+Ha8AW/Fr+AP8D78G4FGMCTYE7wIHMIYQiZhCqGUUEHYSjhIOA2fpW7COyKRqEu0JnrAZzGFmE2cTlxEXEfcTTxB7CQ+IvaTSCR9kj3JhxRN4pIKSKWktaSdpOOky6Ru0gcVVRUTFReVYJVUFZFKsUqFyg6VYyqXVZ6qfCZrkC3JXuRoMp88jbyEvIXcTL5I7iZ/pmhSrCk+lARKNmUuZQ2lnnKacpfyRlVV1UzVUzVWVag6R3WN6h7Vs6oPVD9Stah2VDZ1HFVKXUzdRj1BvUV9Q6PRrGj+tFRaAW0xrZZ2inaf9kGNruaoxlHjq81Wq1JrULus9lKdrG6pzlKfoF6kXqG+X/2ieq8GWcNKg63B1ZilUaVxSOOGRr8mXdNZM1ozT3OR5g7Nc5rPtEhaVlpBWnytEq3NWqe0HtExujmdTefR59G30E/Tu7WJ2tbaHO1s7XLtXdod2n06WjquOkk6U3WqdI7qdOliula6HN1c3SW6+3Sv634aZjSMNUwwbOGw+mGXh73XG67nryfQK9PbrXdN75M+Qz9IP0d/mX6j/j0D3MDOINZgisF6g9MGvcO1h3sP5w0vG75v+G1D1NDOMM5wuuFmw3bDfiNjoxAjsdFao1NGvca6xv7G2cYrjY8Z95jQTXxNhCYrTY6bPGfoMFiMXMYaRiujz9TQNNRUarrJtMP0s5m1WaJZsdlus3vmFHOmeYb5SvMW8z4LE4tIixkWdRa3LcmWTMssy9WWbZbvraytkq3mWzVaPbPWs+ZYF1nXWd+1odn42Uy2qbG5aku0Zdrm2K6zvWSH2rnZZdlV2V20R+3d7YX26+w7RxBGeI4QjagZccOB6sByKHSoc3jgqOsY4Vjs2Oj4cqTFyNSRy0a2jfzm5OaU67TF6Y6zlnOYc7Fzs/NrFzsXnkuVy9VRtFHBo2aPahr1ytXeVeC63vWmG90t0m2+W4vbV3cPd4l7vXuPh4VHmke1xw2mNjOGuYh51pPgGeA52/OI50cvd68Cr31ef3k7eOd47/B+Ntp6tGD0ltGPfMx8uD6bfLp8Gb5pvht9u/xM/bh+NX4P/c39+f5b/Z+ybFnZrJ2slwFOAZKAgwHv2V7smewTgVhgSGBZYEeQVlBiUGXQ/WCz4MzguuC+ELeQ6SEnQgmh4aHLQm9wjDg8Ti2nL8wjbGZYazg1PD68MvxhhF2EJKI5Eo0Mi1wReTfKMkoU1RgNojnRK6LvxVjHTI45HEuMjYmtin0S5xw3I64tnh4/MX5H/LuEgIQlCXcSbRKliS1J6knjkmqT3icHJi9P7hozcszMMRdSDFKEKU2ppNSk1K2p/WODxq4a2z3ObVzpuOvjrcdPHX9ugsGE3AlHJ6pP5E7cn0ZIS07bkfaFG82t4fanc9Kr0/t4bN5q3gu+P38lv0fgI1gueJrhk7E841mmT+aKzJ4sv6yKrF4hW1gpfJUdmr0h+31OdM62nIHc5NzdeSp5aXmHRFqiHFHrJONJUyd1iu3FpeKuyV6TV03uk4RLtuYj+ePzmwq04Y98u9RG+ov0QaFvYVXhhylJU/ZP1Zwqmto+zW7awmlPi4KLfpuOT+dNb5lhOmPujAczWTM3zUJmpc9qmW0+u2R295yQOdvnUubmzP292Kl4efHbecnzmkuMSuaUPPol5Je6UrVSSemN+d7zNyzAFwgXdCwctXDtwm9l/LLz5U7lFeVfFvEWnf/V+dc1vw4szljcscR9yfqlxKWipdeX+S3bvlxzedHyRysiVzSsZKwsW/l21cRV5ypcKzaspqyWru5aE7Gmaa3F2qVrv1RmVV6rCqjaXW1YvbD6/Tr+usvr/dfXbzDaUL7h00bhxpubQjY11FjVVGwmbi7c/GRL0pa235i/1W412Fq+9es20bau7XHbW2s9amt3GO5YUofWSet6do7beWlX4K6meof6Tbt1d5fvAXuke57vTdt7fV/4vpb9zP31BywPVB+kHyxrQBqmNfQ1ZjV2NaU0dR4KO9TS7N188LDj4W1HTI9UHdU5uuQY5VjJsYHjRcf7T4hP9J7MPPmoZWLLnVNjTl1tjW3tOB1++uyZ4DOn2lhtx8/6nD1yzuvcofPM840X3C80tLu1H/zd7feDHe4dDRc9LjZd8rzU3Dm689hlv8snrwReOXOVc/XCtahrndcTr9+8Me5G103+zWe3cm+9ul14+/OdOXcJd8vuadyruG94v+YP2z92d7l3HX0Q+KD9YfzDO494j148zn/8pbvkCe1JxVOTp7XPXJ4d6QnuufR87PPuF+IXn3tL/9T8s/qlzcsDf/n/1d43pq/7leTVwOtFb/TfbHvr+ralP6b//ru8d5/fl33Q/7D9I/Nj26fkT08/T/lC+rLmq+3X5m/h3+4O5A0MiLkSrvxXAIMNzcgA4PU2AGgpANDh/owyVrH/kxui2LPKEfhPWLFHlJs7APXw/z22F/7d3ABgzxa4/YL66uMAiKEBkOAJ0FGjhtrgXk2+r5QZEe4DNsZ+Tc9LB//GFHvOH/L++Qxkqq7g5/O/AJ2afFBx2IwcAAAAimVYSWZNTQAqAAAACAAEARoABQAAAAEAAAA+ARsABQAAAAEAAABGASgAAwAAAAEAAgAAh2kABAAAAAEAAABOAAAAAAAAAJAAAAABAAAAkAAAAAEAA5KGAAcAAAASAAAAeKACAAQAAAABAAABDKADAAQAAAABAAABCgAAAABBU0NJSQAAAFNjcmVlbnNob3RmywtoAAAACXBIWXMAABYlAAAWJQFJUiTwAAAB1mlUWHRYTUw6Y29tLmFkb2JlLnhtcAAAAAAAPHg6eG1wbWV0YSB4bWxuczp4PSJhZG9iZTpuczptZXRhLyIgeDp4bXB0az0iWE1QIENvcmUgNi4wLjAiPgogICA8cmRmOlJERiB4bWxuczpyZGY9Imh0dHA6Ly93d3cudzMub3JnLzE5OTkvMDIvMjItcmRmLXN5bnRheC1ucyMiPgogICAgICA8cmRmOkRlc2NyaXB0aW9uIHJkZjphYm91dD0iIgogICAgICAgICAgICB4bWxuczpleGlmPSJodHRwOi8vbnMuYWRvYmUuY29tL2V4aWYvMS4wLyI+CiAgICAgICAgIDxleGlmOlBpeGVsWURpbWVuc2lvbj4yNjY8L2V4aWY6UGl4ZWxZRGltZW5zaW9uPgogICAgICAgICA8ZXhpZjpQaXhlbFhEaW1lbnNpb24+MjY4PC9leGlmOlBpeGVsWERpbWVuc2lvbj4KICAgICAgICAgPGV4aWY6VXNlckNvbW1lbnQ+U2NyZWVuc2hvdDwvZXhpZjpVc2VyQ29tbWVudD4KICAgICAgPC9yZGY6RGVzY3JpcHRpb24+CiAgIDwvcmRmOlJERj4KPC94OnhtcG1ldGE+CnTvRQsAAAAcaURPVAAAAAIAAAAAAAAAhQAAACgAAACFAAAAhQAAVeU3R1V1AABAAElEQVR4Aeyd+Zddx3Hfe94sWIjBACAw4AruIgGSWr1FVhJFsnMSO/4p8Tm2YjsU/Ut+s0T/QPoPMkD5RNY5OcdOrMVR4hOCEBZukkAAFLESOwmAALHM8l6+n29133vfzACiHEnQkN3A3Hd7v7e6qm51dXX1yEAhLRFIHOmmK2GghJJGrZEcibKdGuXWv4M0UK1SL5osBbodDN8vKqGE2n+Ff8Gjin+3if4Kw1hE1t0RGaZlxxaVHypTyL385swSLb9iJYUEFrVX+28xYgi2EVkEr6EyBa7lN2eWaPmt8BdgggUtgmfFvyXxb2TQF2QK216AV0QRQEayKNHgWS7X/VmUtyBhQdRVnbZERjep9l/hX/GvMLXC3rqUF/ddmmmJqy23KF9ZTlsio5u0iP6KhLF0t23VwaCf+n3xYZJ06VOhzXZ1Jh6R09MviK4CfaX2oihzCkrwEKknIOgHUAzMkBRx45RxqbYDF1K+cxyhajRKNIeox5PV/iv8K/79c+lvrDeaeqNBZy2LyvQHw1BopIigQigwU6LLDdLs3CBdv3FDv3Oi637SfxNtJk2XHxEbUUtUdogudTUjUEMwhkhUfk73z0D8AyZBphrmx/m5TE91++oJBkQO+bolVvs3awAq+lfhX/HPxCN8CDIyPH5G+lu5ciLdsXqVMcpEZrqDPtWmuUXcuYvmtvTIr8LFi1fS8XdOp/cuXUnXrl1Lc/NKpCFLDZA5NeMhSTM5Q+hFUxnZLhO3YhJ6pOaFclnieiiX023zO5LbJCfkD4kttf8K/4p/JpOfJ/09eN/m9MSjD6TxidFMgO3PiFQYJsU2KUgy4plw9Uj7DxxN3/7+rrT/rePpzOl30/WZWReBti368NidqmYZmW9A131dgkFQzZXMGPqqZ76A2ODGlJeZQzwDV/Lyj8r1VI4oofZf4V/xrxCHCMLEFD+FjH5W+vsPv/v59F/+6N+nNXesNI116U8fcykm1Iu7zP3mUs0PyXtffTO9+LffSbtfOZCOHj+Trl+f9TRmRAoKvv48J8RbHrhUJh2tQn6PEAqI8RYOUclXXcw3co7bVAJTJqYeZLqPnG8ukiu4bDTV5HJDeu0/4GB4CEaW6ir8AYdCII2vunwc8Q/ppD/QlEHExfs/88e/l174+p+mdWvv6EDIt3zkMwkG3CJ14VVF9rx2IO34b2IY+j0mhjFzY5DGeuMi5FF1oumB7gL4uqrTgo/RrBLQe0jRWdK7XUDUfgrf5Pq5QOS1I+m2nVcKK8KtL/RW+6/wr/hX6OzD0F9/MJNuzF+DbYh4xDC+8nvpr77+J2IYa0xPJs7yYV48JYkyUYh7U6MljO3f/E7a82owjJH5NWnDxL1p5eiaNNFbKaahcvF08etmlOYnRwJppxFNQZUPBkAfiuQfV4WDEM/9t1nRVldqcHkutf9hGAK7Cn/jUMW/m9Pf+zNn05lrb6WZwTXT0FeRML72n9O6KRiGiRDqcmimJI4VgsuZ/JSk3ZqS7Pjmt9O+Vw+lI8dOpw2jD6dHJn8r3bny3rRmbINWOZAwIjCnRDNCXVJb4o5hswLTAolKgNBwDUK+DeYgXYXyYsIUz8G1p38IRa5C9eH3cTO1/wr/in8fnv4OX341vfLu36XLM+dNV8+KYTyvKcl6TUlEYh2WoSlLI2GUnPJr0msve8wwQsI4oinJ5rEn0pMbvpymJx5Ma8Y3ptGRVqPqlQ5/2VSf9rrduv22EwbWSiuSutxFcZgBSlHzFrVBkRIMDhUYkZ0HCtUu36j9Z5gCLAONS4aQb9t4hX/Fv0OXX0o7z7yYLs6d9tf9q5qSvNCdkhSiA4saHUaTWJCJXwKIJh2GlJ07pPTc88rBdFTLq5tHt6at67+Uplc8mNZObIwvv8oGX6NO1KOFNoSEYZstix25r1LU0aX7z3MXPYoKawkWfhSSi+JEkDpq/xX+5pAgVEGqFvtIA0sq/olcOvR38PLOYBgzpw2hZ/7498UwNCWxDiPDEbrjf5iGFyLtAnf4ninJi1mHwSrJ9Ni29OT6L6ZNMAxJGL2RMQ9SMIygaxZg0G2Q1ueXbohZPwFnV5QyYgCDQcgRPJS/es3Au1ITo4UIrqxbfsvzF4ZV+2d8K/wr/n0Y+jt05aX00pm/SRdnTpmcnvmj35fSszCMoLaGwpAwSsRZTaS5cbKnJH/7XUkYb3pZdXpsa3pKEsZGMYxJSRij+gehx9deP9BxIeacbkHA6U3OcJfE1C11YwIShbnyNJHhO8eDxYgBqeEQMlTSN1FU16hZ+zdcKvyFR4FSBTPAKuNSTnbk44Z/B97fmV4+qymJJAyA8aymJM+bYUwaPt3LoikJ5BhSQgNCA3TPq/vTN775XdlhiGGcOJumx7dKwvhS2jTxgCSMTakn+/NMq237ptdokUTf6WL6dT8WMDJzISGkj+jflhdKQvqgob6mPZHP5hQzCaW6UX5VpPbfggOQBFVU+AcgKv7djP4OMSWBYcyeEa0N0rN//O/TC8/9WVo32bXDCDxawDBa5ArqBusiDclix7eCYWCHsVkMY+uUdBgrH0iT49OSL/S913/PNqjWhCD2oOhM1DAATMEJ+YdbGIVkBW5Lt+2NH6Mt4VaVFl8DpjuK1P4r/MEJI1C5GFMU0S//le8PUMW/AJDgcVASBgzjkqYk0F8sq8oOw8uqKtCB6AKG0aFTFesWxf5ix99+28pPGMYmVknWf1lTkgfSVJYwzCy6leKR1F3ZFsXjhPxAMcasiIgumuMwATqnDLflGilOUF5uS4VcXgVr/4JFC7QAlKFX4Y81I5hX8W8x/RWGcfHGadMjU5IXvvYnaUpKz6C/BpX4MENmXeJsM+MuSHOvpiQ7NCXB4vPoUSSMbWmblJ7TK6XDGJvWx12fd7fORSpYf/q5d/P6jXta885Ud6s6zi+SQ5Tp1iIf6wtQ3m9DFbbMqxCWaSh1/MUwt1Ce+6n9V/iDIF1MivuKf4vp7+D7L6eXzu6QhHHG9Bh2GMXSM+g/2IzoruwlgdQcmi9Uc+PkYoexO1t6ovTc5mXVrMNAryBi5R+kzH9u+SEnxEB1m2k5cmh6uB8PMp9Jy460NRy6pbv3tFP7r/Cv+Pez0x8MY6cYxkUYhojKdhjPaZVk8pZKz6XJrxDiXqYksvS0hHGMZVWtkqzTKol0GGulw8DSMz/qAhYQ0oMFA9G+mYdKtsJhYQjd/skvJlshTDaIUDpRtZanRGLJ6rYE1/JXReXFq2r/hkaFf8U/KApKKTqMzDAU/6rsMJ7/+ldk6QnDKB9iSkJzDroRtQ1ldaiO232akmz/5vcS9hjHjmmVZEI6DDGMTSu2pLVjrJLIDqOp0yFdKzhpPB6OTptiRBSQPpopBmyH6mVWQb4SekpgauK6XKwA0S8pTqQPRanrCxHylGBLHeIRmmIlXvuv8Df6ZGcL4NDHCP8OXHo5vXzuxXRh5qQoZ6HSs5BVUE2jw8i00/4soCqWVbdLh4GkcfT4aSk9t1nC2LSqTElkGq46XdnAPALgW7+Q9RWUkWgAExgKLldSFHGdSIxH6bKzfK8M7L2almr/Ff7CrCKbVvwTPZmEIIyb05+VnmIYl1B6qgoSRrv5rNAkOWInRelpaje6tQQYRVRON3te07KqDLf2ann1iBgGlp423JoQw8A0XJaelCcUAu4yD6YDQf4lX7FmTgH7wBpUL6VR9qspm/Z6+vpbL0tcYoid52Rm4vb8kL7U/gG+AnAhVPi3zKPiX+BFUEpgR6G/g++/JMOtHem92bOmvz9n89lzWiWZzKskbaU8JTFy6dLJoMn2K588FbFpOA50ToQOw4ZbK7KEkTQlMabmRjoSQrSlzJEFw0bR4BGqqnzXcem4NG10Hk11mGW4q07RNrH2b+g0sAMeCgZahX9gTsERwaXiXzpwCUvPb6SLN8I03HYYbD7DcAtdAeijP+5aCaNBMLLbUApi4fnit74jCeOAJIys9LRpOIZbm/Ju1VIa8mfakIN6cvNKGCZ2SlieyAUoqCT/tG1YvyFcRwBBKImZZlFbRT+8TFNZDdT+K/xBJYeKf7ekPySMnWek9JSlJ3SEx62F29szWXYYRoatf0puSVN8r6Yk271bNXQY02NPxuYz2WGsxQ7DqyTFQChXpPdm1EpjkTaQ0rInBUSD1k3ZPLrmIzlRbZhpEC0fSbMEsY4mIxhIrKnkvpo2O31zq/Zq/xX+Ff+C/ooOA8MtvtZflT/PF/4SCaN43HIylLOAYUBIIjLozKEjdRQ7jLKsuhk7DFZJ8rKq3fSpvA2pMqEiDbgx/+qidK+IuBOxCvoiz8VCV9HtX+KPymQJJIo17bmL0r4aNuOp/Vf46wMCDvFRqPhnwjIsDIyb0B8MgynJBU1JgB2GW/aH0ZmSNORnpWdDeCU599FE5Q9DqyNIGHv33USHIQc6eZyaWoW6aT7Ivi3hu9IvT9ksk0b1kkUsdqMGIjRqkCg2dG1bL8mRUvuv8K/4B023FOK7TGQHtay687ymJJYwWCVhSvInssPIEgbc13Vhwl6CKARWftsCJcWbz9jejh1GZy/JJnncmpq4U182/GHooVw17CbyqnbTXbdVSxIkUEd/vAChJfGSEulRKHLjWtKlrxAXCWDU/iv8QaKKf9gtfVj6Y3v7Lm0+u2AHOugwNCWx1/DCMATTTKRiGOGkD1UAoUu8kRJp1mHIa3jYYbD5rPWH4c1nnjqUGlHH29FbpQPsSRkLGIF6ZJpi2yr614MwFSFESe8iEQ5QrqRF+8E4UHASoo5vc6z2z1StUfpU+Ff8W5L+MNzaZcMtNp+NpGfRYXRc9EFZQWugUCNh5GT/lCKQX9y3EsZ+SRjhD8M6jBXdZdVSj1+Fphfda8MYDKOU4MYzETiVOEGT4wK5FPVLDfCeBiVNmEVENRIjNCILlaivUG75rf1X+Ff8K9RkEin0d/CSPG4N7SXpShiZFgtJtgzDJNZccn4Tx2Drr+UPgwONjmovyaZRGW5t+DcyDQ9/GGMSEbzBjBpURmSwy29YQZECcnMaODyHU6yl6pyX06JWpLk5Xfpq07V0X8zJ6Yz2e0xLgADBFWr/Ff5CBDOJin+ZMoI+FtCfl1Wzxy3K4dMTj1utDiNoKr7JWcJYRNaW/9tumlUSm4aHP4yn5TV840THNDweJ1q3mrMVh90ShG5GoiJ66KDs6IP+YR6O6YI/Sm+DlwTCI0YpFcmB8rFNvqR0f2kLNVftPxhyvlb4V/xbgv5YJWm3t0vpiYu+vxDDmFpqt6pUGAupMUg3CNDEKqKFYcRekqL0lA5jg3arZoYxkldJXAvqFq2i1oDvgK7BkJybLzktdxaygwtn1uFqLeNQlActEgbPnGczbq/7zOTV/iv8K/59OPrDa7iXVXECLCpDwignnxX6h8hMY0oIKiWlJVXHunE2n+FAZ++rOmbAm8/k07Oxw9BuVTnpg5z71jG0m9hRVHQHDoI3j4Lam15UBonDj0IrwUya/im6KI80/ZVmdE+92j86ngr/+ECBU8KKzoer4t9i+rM/jHMsq8IwpPTMU5I4W7VDYFAYDENBBNvNUD1lOpgoOZfkoOww5A9DU5Jj7CXRuSTbJGFsnthin55sPmvsPKlqAuZHERM7CbrPeb4h3dl5euFMRBN6JsOZ2UajtQr1o6oq2XGSOxXMLqI/orV/g7HCP+OQEUL3GTcCvyr+AY8DUnruOifDLXvc6ocDHZZVsfQUiEJ9YNk+GMbiRBUiANwcWE7djgMdGIYlDJmGo/TEDkN7SczGVdZVoGQ16q3n7tDR3FI8A5FoXlcYR3bw6WmHGYzSreeI8rFESmNRz4RgqQRGwQykzTMnqf1X+EuyMAqBIIEeoE9zS7Kx6WOOf6yShOGWvIaLmmJZVQxjKryGG0z50h6V2KQC2QBlF7SxrMrp7QfTcZ2tih0Gu1XDCXA+yKhbVa3ANzxgSo9jATrtSkzA3qIYlzQKicwE4nHKKKtebrvZ4p6fl7H2dIZnzmVyVu2/wr/iHzShv1vR3yG8hkvCiN2qA+0l4eQzfHoWhtHSlmjWa59BawsIriE83bCc+qJMw3ezvT3vVvX2dvaSyOMWZ6sWwaBLuOoK/WPDguAHZhLmJLyLZYol+qemCouxmClQjufmGZcILl2ev/yqXO2/wr/i363p75CdAIcDHWiM3aph6dk9lySIrjXc6hDZInoUlbLpbIcsPXfrF9PwOCqx2GHAMDAND2puJIuc4kmDvP+ypJr5RHSR+1xI7K6f67I4io4luIXuVZjycVU6/53mVpxT+xd0gK0CPxX+wo2KfzelPySMlziMeTZOPntGy6pllSSQSFjkr7V+mtPbndO5xGfd6EYqEsb2fLYqDGNjNg3HcMsnn3F6e2Bn/LopKLmgLLJECbmgfoaIvaV5ZSiT+DB7cNya7iaHMjnkZtuOav8V/oEU4Ax3ETKi6KfiX0pIGPYanhlGHGQkr+E+yMhEWAAndMpTEqdkODa5uilJOP/Fa/i+Vw+lI9Jh+KjE7rIqDCOH2PcRWlUkhFYkjGHDytN2VWYKedSo27mFUfTEbJgwtUGrKSwZqh5NUB7GtzDU/gUfAQjQVfhX/Ptp9Ofdqlh6loOMlnCgEzQmtUAjYYBdmQjzR32IDruWnnjc2szJZ7L0nNYqyRqd3o4OowRrJboyccN2VML9lM4UFWKHDYbyutitIjCDsCqgWvcLwaNGgRHtEemrry7fqP1nmDIggNqXDCGD3hcyKvwr/qVDl/G4JYYxpymJuIvPJelsPjOi5Eurw2hSCzIZ05QaXGSPlJ077HFLhlvvnE6bZYex1QcZyeMWToD58qtsfNeoE/WaZn0TEgbWqRxoVMTlpugQMg/3n2VHVVRlLcHCj4JzKk4EqaP2X+HfMMeKfyKKYfIzdmDzNEx/WHqaYXh7e1h6vuDT29nenuEI3fGf3e0N4S5ovhtlSmInwHkvSSg9v6jNZ2IYkjAw3KLFYBhB18x2MAgjrc+vn18xT0UU51koIwYwwGiDF1SapY5m4OOluVK8Da6sKL8lt/Zf4Z/xBTyq+Peh6O/QFe1WPfM3OvlMlp6C2zNaVv2rhmEExTUUJuKFfFtibCLNjWt4SoIDHe1aLcuqPmZADGNSEsao/nm3qL/2ag86LsRs7hR8idtOju+HelKEujEBicJcKRMZvnM8WIxIRH2GkKGStX8Dq8LfCBOYU/HPdGHSCJIqlAmQEg50Xs67VSEsDmNmt+o6n3zmIs1l0ZQEcoyvVG5ZcdLYS/IN7SXBe/jRE+EPw3YYE3mVpKe9JCpI2SaY0qNF0nxHGehacf5QagZykxDSR/TPFIckpA+X1KQn8rEqDUMUFaAQgTZpO2JxpVqHHbo9ylA2qtT+BY8K/4w0H1P8O8SUBIYhr+GID8/iceu5P4tjBiAh00pcFzCMSDT4mtu4saWn/GHAMFhW3TwuHcbUl3R6e/jDGEVjqf+ebWT4xw+kmfW0EKqaMwPAFJyQf7iFUUhW4LY8ZXvjx2hLuFWlgezU0YvU/iv8K/5BEyagcjGlKKJf/it/If3Za7gYxiVNSaClWFaVpaeXVVWh0+IChtGhUxXrFmUPyQ42n0n52fXpGabhnK0alp48UKd9RYiWbWkmbbdLsbx9xGV8UaK//rwj9/rhtlwjxQnKy22pkL+QKmhm1VaKgq5d+w+vpxX+RcsFmlT8E82IbgrDaJZVNSV54Ws6+UxOgIP+GlLiwwyZdYmzzYy7IM29eXu7jxk4ioSxLW1b/0VJGNJhcC4J4oVb5yKJwp9+7t28fuOe1sLxjYcs5xfJIcp0a1Ef6wtI3m+nbqRBzZKFFl0tRqpGI9pQu/Zf4Q9OdDEp7iv+LaY/tre3DnSYkoTX8HX2Gh70D4VCw2IY1iIokkOkK9LcOKPYYez2btU4+Wybl1WLpWdZVs2DlKvzQ06IQeo203K0T9PD/YSIoTTLTrQ1HLqlu/e0E9/P2r9hmoHDT4V/xb9b0Z/9YQz59JSE8ZyUnpNLedzKEsZCwi3kVwiR7e1YepaDjKYxDZel58Z8kFGcfBatDBNySA8WDAryilO1wnFhCN1a5BeTrRCmESXdev6hVstTIrFkdVuCK/Iutf/QJJl5VPhX/BMOQBmEmJLIgY79Ychwyw50viKfnjCMlhNQ1lMSS/OitqGsDtVxu09Tku3f/J4PZT52TKskE7L0xDR8xRbvVu31ZIfR1OmQLmKhLUXi4ei0KUZEAe4XykvvY4XG21kF+UrgnAXI3nW5eAKqX1Kc6BeIum6ARPJq/xX+4Ab4EMHoUiL6/bjjH8cMvOxjBk6KchYqPU1FSg2oNTqMDvyWhCrLquHTM85W3TQmr+EwjFVlShKbz7qygccI4jdH4hsPAYumJRrABIaCy5WUPMDWZlIWPtBlZ/me5tRs0xJtq1yRTWr/BlyFf8U/EcbN6c8ShhjGJfaSCGWQMF74Wtl8VmgyqLDDMCIhrlGoudfNHh3GvEOGWxw3cEQet7D0tOHWhBgGpuGy9KQ8oRBwl3ilunB60yaxZk4B+8AaVC+lwfWrwTNUpycJwbMm4mIgdslnBMiTFDcYrXIl1P4LHFrmWeFf8Q+6CErJVJLpj2MGXpYO473Zs6a/P0fp+ZxWSeSiz7TUVspTkkJknQyjXCZM7hvTcBzo4NMze9xqtrcnTUm6rTd1MxkzNZCD4KFhIyt4hKoq33XoLYemjc6Lqo6bKmXKb5OYX6KpW/s3iCr8K/7dhP4OXAqv4eFxCwlj8WHMmaqCYQRCKclTgEKB8VsKYrD14rd0VKIYBrtVrfTMLvom5dMzdquW0pB/TCXcSuEFym7oOjrVtYhKuf/cRFGKOkp9VldUFKYYmo62RK6itspd7b/Cv+If1ODwU+jPBxmdkdJTlp4qao9bz8sJ8Hq56CsUVX47U5LcOD8ltyQp7rNVvVs1dBjTY3ICLDuMTbLDWIsdhqgZMo01jVyR3mlrYVDaQErLnhQQzbA2ZfPblXkJDei/laKUKUKKWZJYR5MRDKT2DxxyaGBaEvJvhX/Fvw79FR1GnN4upSdnq/6lLD3xGk4QvhSkGmYYIJKQrEG4RqxnLwkOdL7TLKtu1pTEZ6vmZdWRrH+wIVVGVKQBN+ZfXZRujbQ7EaugL/JcLHQV3f71cCqTJZAo1rTnLkr7atiMR+Vr/4JFhX98ZAp++FeXin9L0h8MwwcZ6VwScAfDLTsBnpRPzwWzjmAYBbCFKPU7nCSfnrLD2C4JY+++m+gw5EAn42mnlUihrSD7toTvSic8ZbNMGtVLFrHYjRqE0EzDotjQtW29JEdK7b/Cv+IfNN1SiO8ykdnj1nkOMpIDHQV0GM/LgU57tmpLjcMSRqGzBeyC5Pb09nJUouww1n85ziWZuFOMCH8Yeii3HXYT2aqiaa3tFibQShfd9JbEueuE3O7waytfDY2IixRBvPYvmOirgN1KhT+TZDDGwkXzq2jFvw79sb19lzafXbADHXQY3dPbgZZCBqIYRjjpK5JHAW6Uiitp1mHIazgWn/jD4FyS4g+Dg4zQYXQDdeLwoUbpEBwCTjEUNJlQmm27lM7SKVMRQpT0LhLRAOVKWvP8ZhRRLuq4oi61/wr/in9M1X86/WG4tcuGW7LDEP3FQUacSxI6DGgJGvNv2XzWkGCk5iL6iWIdCWO/dquGPwzrMFZkwy0vq3abzk2UJG0YQ2FRotzAO9iIBidoclwgl+IpSw3em8eWNOHvRlQjMQKNDSlNlEz90mHt3/Ap4Kjwr/hX6I+Tz9h8ZtNwIchXv9KVMDLG5J+bTElaOsvkaIOtv5Y/DI4bOHpMEsaoDLc4KnFF+MMYk4iApOBA44gM3tcGKwjRsLQFYeM5nGItVTe5TotakebmdOmrTdfSfTHn5Ulpv8e0pPbfAViFf8U/EYo/0remPy+rZo9bUDCnt+Nxq9VhKBGaU2bDMBaRteV/qkdoVkmaKckT6Wl5Dd840TENL4XNCpiitOKQW6JTMxJlWRpQgsWAIHvuXU4XNtF6G7wkECw92yeJTnje2CYf8eEr7db+K/wr/hX6uhX9sUrSbm9HwpDS8y/EMKaW2q1qJ8CLya0QqIlVRAvDiL0kRekpHYZOby8MYySvkrglKmus8kqrIsgFC4k+p2WeEbIDEZhHfk210zAOp7cSBhwkz2ao0tYhUvuv8K/496HpD6/hXlbFCbAoCQmjnHxW6B+yMl22OowmiZscGtK1T88d8um591UdM+DT23UYc/cgIzkBhpz71jG0m6iRY7qMAzZhHgW1N72oDBIHUo1bCWbSsAGKLsojzcV1UdB97b/Cv+IfOr6fjf7sD+Mcy6owDCk985QkDmMudJppE4ahIILtZkCBOe5yssN45aDsMOQPQ1OSY+wl0bkk2yRhbJ7YkibHsfQcU428vGkCjxYsV5jYoWhl5DzfkK44/Xt64Uw+Dbl/Jk2UsY1GaxXqR1Uy2d6M5gpmF+IbSqR+NB3x2n8GSAubCn/BouKf0eCAlJ67dHr7BfvD6OeDjP40LD1FR6E+4CPOLdS6KFE5BAgvB5ZTt+NAB4ZhCUOm4Sg9dfIZy6oWI1TWVaBkNeqt527b0dySadn30byuDVPgoUT4JnClW88R5WOJjMaij2AMiiPBKA1WVfLMSWr/Ff5SYxmFQJBAD+NIuSXZ2PQxxz9WSXbacEtew0VNsawqhjEVp7cbTPnSHpXYpALOAGULZekwtPmMk892v3YwHdfZqthhcMxAOAHOBxl1q6oV+EbRbcaxAJ12JSbAGIpxUaOQ8NSkU87PpXhuu9ninp+XsfZ0hmeu/bdDV+Ff8U8k8WHoj9Pbd0rCiN2qA+0lkT8MH5VYGEZLW6LZ8OlpWltAcJkmTYcsp74Iw2B7e96t6nNJ2EsyFrtVi2DQJVx1hf6zYUG8gJmE3wQat0wRVYb6p6YSxFjMFCjHc1NmieDSpX75Vbnaf4V/xb9b0x+nt7/EMQMyDYfGnvFeEkkY2q1K6JATH/lMgt1UF+tcVARfnjtk6blbvxwzEEclFjsMGAam4TSiqzrN/CB3pgTtT2dJtaRHQV0pS53Sv35dnzT9sTjqRzS3aPNyLReK8m5FpXOZeJTav+DhSVuFf8W/m9AfEsZLHMY8q70koptntKxaVkmCoJSY6W+JKYmLqCKFuPfFBlvb2a1qHcaZtDGbhjcOdDi9HSJt6TYi5hCgbKhKaLEpqPJDxN6tu6D/Niva6n41os22WT+HE1Wr9i9IVPhX/Ls5/SFh7MTSMzOMOMiouOiD8trQTEmcVAi+zW94AB638Bq+79VD6Yh0GNPjC5ZVYRg5xL4Phmix+ZSnIHCJEB2CoIkTMgOJCNabLMFGLK5aTWHJSMzEVZQH41sYav+CjwBU4V/xb6H54lL0592qWHri01P0FOeSDDvQKfTXShhgF8RXfhdQYdfSE49bm8e0W1WWntNaJVmj09vD41bTrAiZhhT802nUt208TLwVJ6n7dorDDGJVmWz+tcHkoAIj2iPSV19dvmGtSO0/gGWgcckQ8m0br/AXDoErgORjin+HLmuVhCnJnKYkEt2x9AylZ3ag05JdR4fRJBZk4pcQXIQjElklwR7j6Dun02bZYWz1QUbyuIUTYL78KhvfNepEPTfRXMjF5kLj4zlF7qsUdXTp/lvFhgrLLoMxjmmJ4h5w887avzEfgBagNsB3WoV/xb+F9IelpxmGt7eHpecLPr0dhpHxCNGD/+xuN8E5o4tcw/eNE2DpMGKVZFu46FshhiEJA8MtWgyGIYagxlmAwSCMtD6/8AJi1k8ozrNQRgxggNEGyE49VY52KOBKDRkoIQdX1n0pw2+pp1qK1v4r/Cv+BU3civ4OXdFu1TN/o92qsvQU3TyjZdW/ahhGkBtUaAoT8UK+jjiriTQ3TvaURMcMYI9RllWLP4xJSRij+gehx9deP7TuVtVOTrcg4PQmZ7hLYipOXb6EUapT1hmku5glSJGEmteVbmr/AhaACBg2kKvwN1wq/gk1lqA/HOi8nHergjvPsvnMDGOpzWfBL0yEhRDbr3skqw3vJfmG9pLgPfzoifCHYTuMibxbVae3Z1xt2gp+Qe14St/pYvzNqbYCyS8Bp+Bxon+mOCA+0gcF+mIQkY9VaRiCKZlCBBWp/bfgKDAR8AI4uvpOlwr/wEhjleARHzfA9PHEv0NMSWAY8hoO/T2Lx63n/kym4V07jMCj1g7DGBaJw7eRZktP+cOAYWCHsVmrJFunvqTT28Mfxijfe/0HPwv9ux3H8iJoIWowlv0hhPzDLYwCduEQ3eo23/inLUGpwmyooxep/Vf4V/wTGWQKCjpy7Nb0Z6/hGG5pSgItxbKqPG5NocPI9FdaE0chpQnd7O499hc72Hwm5ScMYxOrJPLpGabhctEnCcPMolspt8osKralmbT9CBTznrLu2ynRXz/SuNdPZJdCpEQI1sIXQWXI1l/tX2BogVZAJdBU+Ff8g/aWpr/CMJplVVZJvqaTz+Sir1BeQaZGwlgCz3KZIM29OluV7e0+vf0oEsa2tE3nkkzrXJJJziVBvHDrXMTRoGJPJQqRk05beWeq+ZTqKE7FwgCIR0klO7iG0tSmJRMlainVzSvNxwqQbm5BBWrX/iv8wYkuJsV9xb/F9Mf29taBDlOS8BoePj0LZQadDhtuQW8N52huSJUOI84l2Z0tPTn5bJuXVYvHrbKsmgcpV+eHHOshtJ7jE8wo4o7KrxOIxCDzmbRCopMeue3jUVR/bYnyYqQoJ2fyU/uv8K/4J7q4Cf3ZH8aQT09JGM/J0nPylkrPpckPyuObz/Z2LD0tYcinp49KlAOdjfkgozj5LOh0uKWQHpAlmEmZeNVeKxwp0aFbi/xishXCJGK1W88/VGl5SiSWrG5LsBTeoPZf4V/xb2n6iylJdgIsuuL09ue//hX59IRhlA8xFAfNOehG1DaU1aE6bvdpSrL9m9/zoczHjmmVZEI6DDxurdji3aq9nuwwmjod0vU0gsbJjNAUK3GVaaYYMAaql1mFbmEunLMB2bsuFytAaEARJ9KHotT1hQh5SrClCvEITbESr/1X+Bt9vI/6Y4d/HDPwso8ZOCnKWaj0LGQVVNPoMAoxNb8LqGqPGQYu+jDcwh+GvIbDMFaVKUlsPuvKBuYRELD1C1lfoXa9VBqU3XTX0LhTGD0XpHLmA112lu9VxE56SitUUekim9T+BZgK/4p/P4X+LGGIYbC9XSRkCeOFr5XNZx3iEjJ1GAZFIbfAMYo197rZ8xoOdMQwtKx6RAyD7e023JoQw8A0XJaelCeAo4Qu8SIOGnfzr2PNnAIZAmtQMRW9nFkLPENle/r6eyGHuMQQu+TLzMTt+SF9qf0LXgTgQqjwbz8eFf9uTn8cM/CydBjvzZ41/f05Ss/ntEqiw5iNS0FegVN5RrIow7mZMLlvTMNxoINPz+xxq9ne7oOMKJlbb+oSJ1ldy0Hw0GOTFTxC/SvfdSicQ9NG06pv3FQpU36bxNq/YdzA7ucDf4aHaSNTRZ8JBdxz0x6CCv9A7WWI/wcuhdfw8LiFhLH4MOZMVR0Jo0EwD39zKQUx2HrxWzoqUQyD3apWemYXfZPy6Rm7VUtpyD+mEm6o8AJlN3gVWKZrmaooMxQZge9mIXk6Qn0hKgIIQknMNIvaNJdp2gOra/8/V/gDd4EVDwbw/Hk4hvDFUNZvGfXgIBX+yw3/fJDRGfxhnNGYai+Jl1WHt7eXMe5MSUxxcSm5JUlxn63q3aqhw5gekxNg2WFskh3GWuwwRM0gUKxp5Ir0TlsLg9IGUlr2pIBo2EpTVjcwL/ORnKioeQnRIqSoLwucTUYg8HLsvxDjqAhydDze2e5F4K5ACGapu9lZEetMBqnylnp/4Dom/bPs6BJ6aALtl9CfFwjn1A4wnpUqmV9CdCWmrGkfYzOhZ+F+VPcai7EJFUCvrf77MA21Mz+vGz1Hf24kzc+pHTES2oWpE0bH9ac6ZvSMp4KHS9VwSTC40Utzs/qlfOlfBUbHB2lU/YNPNEZ7nq0qWp7ffdI/ZTKcKv798+iv6DDi9HYpPf9IpuF/KUtPTUkcyvgAbaYkkaqr7oC9/kcgK2NbscMoy6qbscNoziWZVjFhBMii8nn8AnFozB3SFkU0rO5EiEJf5Ckw2DyK0yKJh1PcnCOnuKDbc7NulyyIR5Fl2j+EPTY2kiZWD9LEGhGMXtlElt/fcBGBXn1/kK5/oNfUvV8300v3/SHs8dUprVihNleorcw0DGgBbfZGSnPXRtLMjUG6cV3t5LYK/HuqNy5iXbFKfytF8Ct6akfPxf3oiAhc9cU05mYGbmtezGfuxki6fq0vZqZRENNgWGBytLF6rZgOjENMgPH3s86rjOz6r17WM7zvYdMlxp9Nz9SZ0DuMilmNGBj6parCnPqb+WCQ5vTsM9eiLji1nMef9yrwvx34D8PwQUY6l4T+MdyyPwz2kmT65xkJwTAawotErsNJ8ump1ZHtkjD27ruJDkOfRAaVem2IFNKC7NsSviud8JTNMmnULlnEYjeqkELFGjVIFBu6tq2X5Ej5Ve9/YuVIWrF2kDbcNZLuvE8EKoJFQuDpCRADRHn6yCC9d6wvYg+izZn+4UL5lVo633DvSFq7cSStXtdLEyL27vtffb+fLr83SO9Lv3Xx9MCSwkAE3BNB0+cd60fSmvUpTd45kiZ1v2I1DGiQxiX59MTU+jALSQUwm5lrAxPtBxcH6eLZQbqm3+tXJQWIqMXr0vq7e2n6oZRWTY6klWIALG9D2sFkUjr1Vj+dPSo5SRIKY4wks0Llph/spSnBwgxLzMbMjsFXuHoxpfdO6x3eFcO5EHCgLwIl8q3jJaX7/qWEy5LhG10+xvhnj1s+ZkAOdBTQYTwvr+Ht2aoFUAxFV8JwcS5tgZIUxwzINFwWn929JD6XZOJOMaL4lHnwxJWwm8ir2k1r3VZN/CQodNNj0LspUSYKRW5cS7qQUFykfIOWY/+r1qU0JQLf8mQvPfIpEbmIBumgBL7WNyRZHPhBPx1+dT5duyTiRNIATPqil/fnY7BueiQ99OnRdPcjgzR1z2gQqoqRR3GYxJmj/fTOwUE6ub9vaYHpxTiShaSIzQ+MpI36m97SSxvv6aVV+tqvuGMkjYmZQPCgS19SxrWreoYrItpLIuCT8+nEATGzk2JE5yR5zOiZNG+578nR9MS/EPHrmdZsUJoYgppIs2I218Vsfvy/++nArnlLDUg69L9WjOrR3+yl+5/Qs0si5rn8kRMMkCTeO9VPR9/op9OH+7oXw/oAOGn8QSiF5Tj+XWznLYLFx/v4pfxiuhgQgenUcdB7l/En/s95f7a379Lmswt2oIMOo3t6e3QT9GeGoVmsO42M7sPnoi5rHYa8hocdBpvPdLaqlZ5xkBE6jG6gnTh8qJGb6U1vtAAQgEdpIBJ1WDplKkKIkszLgBXlSlqUJR/wRbmoQz0CseXSP1/19fqiPvyZ0fTYb46lVXzRxTDK+8/rZeZu9NObIq7Dr4pQ3hFhnhc8BJg+DEPvihMiph+btoykrb8thvFYL63f1Evjq4BEbkkwPH9CjOIn/XTshyK81/uaVvDFj/7X3Z1UbzTd83BIKGtF5OMre9YnIH0QGEL0CDOafsxJ0kHSOH+8n468PpdOvz1I76p9pgqoFx4V43ryi5Ka7u1JYpHkpCkG4zUrZnFVzObV78ynH/7vOUksMQ1bu1nMStLFJz7bS/fo+VesEqOSZMP496UjgUGdEaM4+IP5dObIIF2RlAFzcgGPuB/Rl+U0/rcb/zHc2mXDLXx6loOMpMPQ5jNCwSD/thJGTo5UFQskK8VbCWO/JIzwh2EdxopsuOVl1W7TuYmSJMQG20qUG3gHRyTCCZocF8il/Aj5HqzhmSRNmESiGokRaAxs9nPz27mlnV/h/ic3SBq4K6XHfn0sbf0XY/qyojMQA+a5M8Tmrw/SW6+JMH84l05JOnj3uAhWX3qIl9ATx0UHAsF/+su9dO8nJB1MieA0jeiC5KyI++TB+XREjOcn+psXwUGM921L6X5JBPc/oboiVnQhVsAKpoZ3AW07gmZYJMMw3tozn46/OZ9O/UTSg3QTKEYf/bVe+uSXRsXEemndRm1PFNNhmGYlnXwgfcye/zGXfvi/9Aya4vTG9Az0v7WXHnxKU5ktcpggBggj5AVmxCwunE/p+I9n0/5/6qd3xTRnxKx4f39flvH432785+QzNp9d5KhEgfurX+lKGHng889NpiQFTUHFCBhs/bX8YXCg0VHtJdk0KsMtjkpcEf4wxoSwRSw0TikeDiviq2LcL42BhBpgnmEIm0u+ECRqRQLlwJu+2nQt3bdSUZTsMS0BaQiusHz6n7xzkNZJwvjEr4+mbb8NwxChI4rH2/jKNOCdI/106tB8enufphSaAqB8hNgg6ZWr+2lSRHmfCH7b50fT9MOjVnyibMwk73bOSQfyzqE5MYxB+skrmpLo6w7AnlCdJz7fS3dqGrJhM3MHmFAQZF8iDtLELEwX6tR/lNvks6JyXlORw6/OpuP7B+nsEekxLquenunRz4ykT/2upjb3j6Z1knZgGHwfUJBel7Jz99/Npdf/sW+FKO/82K/3PJ3aePdoWnNnlKUvdB7vn5NUJEZ5Yr8Y04/6krDi2VCe8n7LefwDYTuDrfeJt4o0o7Muvyj897Jq9rgFNnB6Ox63Wh2GUcTMvmEYw2hFAWNFPLGuzSqJTcPDH8bT8hq+caJjGt6U9isqhljAI+SrkjnMKJIpw1/k0z/3jukCIviAZmEY8+YopSI5UN75VFsUSBQ2L5P+J0UcSBifkIRhhiHF5YSVfe1bszJy6V19WU/004/+SUzjtXnpAiTei5AB3eqplO56ZCTdv016EE1t7hTRjU6gSGzboNw5TRnekSRw+HW18cp8TGkEqs/93mj63L8bt84DJazHX1BnVWJO0o1XNDSVQHIgMP1BEcry7wXpRQ7reVBinpPkc0MSxKDfS49+LqVP/c5Y2nS/JAwYBkOiP1Z6rl3ppz1/N5vekISxUkrRtdMpPf2vx/zs6EzGJXHAXZjazKi9M0f6af//nZfuRcxCClZ0IP585OfxQzWX5TX+PPbtxH9WSdrt7UgYUnr+hRjG1FK7Ve0EuIG0bwB3QTMTqwYOhrFd/jCQMELpKR2GTm8vDGMkr5K4ASprIFFrWFxUawCktOkyJS13FrIDEeN/lAVvC+NwepQC8SnA1yra79ShATpaRv1PbtSKwl09f2G3SsJYoanjiqz0LPDnla9dSemyvrQ/0rz/kIgdheN1pREmpTR99NNSFoph3PO4dAbrY7Ulclv4WMLQlOTwa0gY8yJ69aX+PvO7454+jDMVsQ2EQCgYXrkwL12BVjREsBdO8rWHUYuhSb/AigaSEKskJ98apEtSQl7WPVOlgRjNY7+hKcmXNSWRhLF2k9otEgYKU0khe//nbPqxmN/mh3rp7od76YGne2J6YnR6JpSsvPPVy/10Ue2eEDN6a4+mYsfm/c5IHYSPwvgbl3UJptGOFem/DPzHa7iXVXECrKdAwignnxX8M6x1aSQMEjqPGtFCmYqx+QwHOntf1TED3ny24CAjOQGGnPvWMbSb2JFjuowDsJhHQe1NLyqD/sGjTysFeIUzqOCiPNL0V5rRPfWWY/8sYaJw/ITm/Ft/ezytknjO6sDCF0TBeU2i/Ovfn02HpDNgxeOq4oBgwz0j6ckvjKX7n9L93Uxr9DGXkjFsXmgrwnlNSY4f0JTk9YEkjL5sHlJaM91LT/8rKSg1JRkdkyQQC14ifK18aFXitJjFISkaT2pKMC+pBl0Rqyf0wZIpNh0XpFO4cVkSDyKBDPIY48d+TVOSL4+l6Qd6YhghYTDs1z/om/m9+p25dFCK3Ec+N5Ye+pSUo3qHtRulu+BDo8dFt/K+mNXRH8+nYz+aS+/sF8M8L6alKZLR4SMy/paVbiP+2x/GOekwZIcBNj2bpyRxtmqHwKAwcRCCCLabAXLluAdFCiqdR7IdF32akhxjL4nOJdkmCWPzxJY0OY6l55hq5OVNqpqA+VGkjC595DzfkO7sPL1wJqJB7h+dBGVQYHSsQv2oJCnbm9Fcwewi+qN+NL0s+l8jpecG2SxY6fnbPdtSTEwgv8d7QKAARcKWlldDMvAU4G190c+iAxjxV/zpfz2S7ts6mu7Q6sYEqyyGY27DABnRlAH9R0gYTEnWiFlNbR6kp8SonvitMSsf0TXQHzqSs0fFKN6eTz/Zk7S6oiXQPAUakxQwqj4mpCOZ0yoLks78jJbSxdR4Wi6PofRkSnKf+pCEgR0Hz8SU5arKH/zBnBiBGIYkowef0urQlN79DnARSWYkfSAJ6rwkikP7xCwOaEn4jHQfms44wJdU7qMw/tCfp9fG418+/h+Q0nOXTm+/gNJTNBwHGekwZiw9jXq+5FuedlFiHpSCcIqynLodBzowDEsYMg1H6TkRy6oWI1TOVRhJNSoaL7geHedm6Y4QzevaMAWQzVwsck0oUTWWSKNmtK6ruTKMgtds84xJy6h/VknW3YOEMZaeQMIQ0UDwGUCAqgksg57UPB4F42GtmLx7Ql95zfk3PTQiHcBouk+rI+ggbOEJYBYEpiQnPCWRTYckjEl9+Teo762yl3hcOpQRETXGlQRM0c+IWTAdOCol6anD0ptoyRTjrb7G2Iij35vB/xFNST7NlESrJFN5lQRmgP7hmhjfKelSzh5L6SFNRe59AiWqRhlmJZphafZdSTc865s7pRsRc5zVUi7TJA87vX5Exv924z+rJDttuCWv4YLrs5iGf10MYyq8hhsZ8qU9KrFJNffIsZa0Y1mV09sPpuPH8IehKUnefDZVDjLqVlUL8A3TvNKx5AvUomklCHMk3gg3ciqYBOPISBAPQIME8vKPysVXxRlRxZ20ZSKHPpdH/2ul9FwnCSOmJBgshYQQL83btO+GEvKSCOnUEdll7Jy3knGdFIZ3PyIl42eDOLHhCCkhQ0KwK/AvqyToMA7vm08Tk5ouqP+nvjguKSNsLjABJ6CvuIyiVbqLI1KSnkKikaXljUuyNtWSJnoEE3AzOKoUVV3/EUkYn/4dPZOsV7GxYCWN/BnZlGC/gT7mitrbKDuNdVqZAQUYf6xaL7+nJeQ3tCKi6cipt/TOUnTSF4zqozb+BtltxH9Ob98pCSN2qw60l+T381GJhWHoCTP9iWYRdEOMLHTn0e5cKIuy80WZhu9me3verepzSXDRNxa7VaF3I0z5zVGNc4NH9GEm4c54jmAkrtKp1zQkQJqPUI7npswSAaAv1/6xbsQU+vFf07Kq9BAoIS1h5PfswgaiuS6bhHdP9mX0JAMmSQybpSO4Rysk98oGg+XZUUR/pIQMzy5Yzx+VdCIJBQbwtuwwMAlfeUdPqxmy3/g3Y94z4o1m9K2KM5ImrqDUlDRg60otoV6S0dhVWZvOyAwcK1EMyCjrXw+E4vrFDgOGcWdZJUHpqaxZtYl+JBiOVklWycBMUhF5vB8rMhiYvfmSpiySpDADZ/8I4aM4/ry5x8gXv6YuGZC/BPzn9PaXOGZADnSgMXarWsJY2z2XJJ6rVXoOPWx56PyrUWLT2Q5Zeu7WL6skONB5cn2xw4BhoCnLg6pOMz8IQPDywiaWVEu6W859GjSlf/1aMsitGe/BEnOLNq8BaFPerUSzy6x/vvBT+gJ/4jdHw3CLZVWmJDlgBwEIYplZRIUyUMq/H4ug3n2nr5WFnpiGCFN7SO6QMtJiPXDhT214iiHAw5pRer6TpyQoPSnD6gXKyU+KuNn4hdIVcFMZAp65LklA+zYuyeybfRyYgL8nqeP981JeygDrhvQaA9lz8JyEItnZcEttTmuVZGqTRkyMjPHE2Ip2+VbRP8ZllojU54yWcE8dxrisb4Z2XpIUOg90GjCkghsfpfE3qAFdhnl5R5J+GfiPhPEShzHPai+JOn1Gy6pllUSPoDQlZvpbYkriIrkQ97xFSBjbv6nDmK3DOJM2ZtPwxoEOWNp5aVeirjlE8FCyI+SC+gngZEjlH5fxQ3IX/bdZ0ZZwJ+e4dFyWaf9IGOuww/gNSRifjxUOdozGC2rlgbm79AmxXTyI+QN9hd/WlOKixHqWJDfI4OoOWXaiv7D1owlSCKdhCYvJAFEzJZFOAgMwvvZsPnvqiz2ZcUtC0b4PrDIZt6L8pCbEekPEfPGs7C60d+T0UTENMSumClcuiGlIGTkvxsG4xAUJQ1JLY7il50bC8HAuHH8qRcBK9NBepB9ZtP5E/WF8KAYDblELoPA9/iiNP2/kt2uRXFG9rWHlSynxC3l/JIydWHpmhhEHGRUXfdE/kCc0UxLH8jj6Pl9KEh638Bq+79VD6Yh0GNPjC5ZV/VmLSuV4Q+r6i6Lf8tr+zsElgnXyBAJOfqjOLTV6ymPC1AYhsf5ZT0sV5QUCtiW4W279T2pVw5aeIrCtmpKwXFkkDN7/qqYE7L24Q0ugqzV9AJizEunZ6XldojpEvmYdS7HK0H/2nbDHghVODMDGteMUHxmEs5IwTh6QwlMbuGA4Zkb6emMDseWpkXT3o6Np84Oxj4Mt7c3HRc+BBDF7bcS2EZc1JcE+gikRpuHsb2HJdx4bDEsOIwkdxmcWTknyuGWE0BMxwCQq6Jbpz2vfn0tv7RUz0qoIkg3P4GK6fBTH/3bjv3erYumJT08NRZxLMuxAx+Mj+LcSRhm38hslmmvX0hOPW5vH5DVclp7TWiVZI6VneNxqmjXROkZ7Hu0WKYrU4Rw9YdhgKNblLqoHM0DfYd6iNtwUlRQ861OBES3j4Ywlt+48Ym6T2DLof+1GEf1NpiR82dk3cVHiP2WmtInLdhKiIoyf+mIMKybzZjV9wWclBaBIxF8F8GMDF7YWLL0SPycdBqbhKD2ZkszIrgIC33D3SNqwRZaiMvrCvBwGtEYSi1dN1C4Apj4BRsQSKgrQc4el39BKyjtiQhfP6Jm0FFrMzZmSfIpVkvtZVpV9xUIJQ20xPG4231zR1vtXvieGsXteNhfac3KZMdZ76n0/quN/u/H/0GWtkjAlmdOURLCOZdV28xljXkKrwygpzRCW4WE4scPgqERNSWSPcfSd02mz7DC2apVkeoU8buEEWP9MqE39qNc06xvInDVntagHaxhHKWqkyZjjdqiUM2F9vtVFdhkIJm7CmKyIEUrItQz7x9LTDMN7SbQHxKskBpi+6iPp2JtzWt4ceAcnVpNsA0cvgUKS12Wqwp4ObGmuagXj7DHN+TU9WClGwTTljnVh9QnBI2F4P4qYxdvaKj+rFQn0CXaYI0nkrke0xf0hEfkDyftKUIiyqW1MHdIP/Vkg1DThhpZ4b8ie4pymJkfemLO157tiSDe05ZzVjEc/y14SGIaWVTHcKoyHV1M7zfgTz+G6LDvf0rOxQnLykJiQcNiGWoKDA51/xMa/oPgwTAAQgffOQPftz//9sfQ0w/D29rD0fMGnt0vUXdD/iL4uQX3O4AGXDo0TYOkwYpUEpadc9MEwyrKq2giCDaTiywUSk9bn1zBQTF3yuQKBmXOwI3GA0QaAUZo3lgX0Ii1fKd4GV1aUXxrmd3n2v3aTdqtuHtVeEll6MiWRXcXECr2OAvqIN3fNydqxH/YKnxBDkScr7/do3jvenyv7LI7+UIxAU5YN0otMTcssW1OeHkutyj8nZnJClp6HX9eyqlZJ2GruKZ7gz5eOqdGUzNTvekDLndoxikIWXxYoQpFWkG6wxIwQ/V6SHuW4JIyjPxqkIzIG+0A6DVZPHtbms0//riw9JWFM6jlgcjHmeq8ymCrHTtUYPzFBMSG2rgdTG2jL/LxtMrAJCfwpfX90xv924/+hQ7a9JwAAFaVJREFUK9qteuZvtFv1lIfhGS2r/lXDMLojzRgQmuHSTRNpblzDUxIdM4A9RllWLf4wJiVhCB1M6B5VVTViFGK2dBB8yV+n3B89EIZ6ynVDAA2s4uqyNOqnjXiwGDEgYRLI5N2qvlle/bMzE38Y7FbdKqXnKq2ShGk4vjJTeuMfZUItReAjnxtND2ivCFIDthqGDiDJQIS5nNfX/s2dc1YU3vv4qE3Gp7SvZFRSCeAre0mOaKs8u1XZvAZxuy21A6Ni89fqdQMxi54kDaxIsZMIs232jzRObehXAUMslj5Zpn3jf815FQVdxiOyC/nU76iN+7RKIj0LqzF0ZOlSUg02JfP6YODzwjoW5fG+KD7PvTMv5zpiRGKUVzQ1scMgKqs8getHZfx5lwJ/Xsxo7jeMVK5+618Q/uNA5+W8W5WOnmXzmRmGEHFBWDQliYePaylLjL0k39BeEryHHz0R/jBshzGRd6tK3sy0WqoFFDrsyK3qYv6hUgCC8QcODrqBfSGRgA4ur0Zj27psBsihPRkZhCGSilGIoDaWa/9rmZLAMH5Dlp7aZr5qDZae8RmHmPf8/Xzav3MmPfLJ8BexXjtR2WzWfukFRwgwL0n+6P/MGa7sWsWhztSdo94kBoywwzihLfIwDCw9MaAyARuGGf4C5Lj6R5K5835c/o3KuGqQNumX51yzIfQoTC0JMKpZLfUe1qrLD7QD9bx2rGKp+bAc4XzqS2IYXlYNK07eak7l+5KAMCfHc9ek9CXsScF2BHwYSEly+b0RT02O/1iOeX7CEu68NrSxAvTRG//bjf+HmJLAMOQ1HPp6Fo9bz/2ZTMO7dhgQmsZIBQrJKSESddO5jTRbesofBgwDO4zNWiXZOiUdhgy32EsilZZZvunZDZQLWBXahoao4Riahjh0eodRwC6adN/mZ/JPW8KtKs1MN15k2fbP9nYI8XFNSTAN9yoJXrr1H8L6gRjGj/9pLt0lw6zN0jHcq2VUrCdRBmECDmjmJcqz1IryEYMu9AVP/Naod39OiSHh8g9YYYdxQjYOsb1dEoYYBgRPaKEbcKVtPHatkjXoekkY0w/10oPa97FZpt6enqgP2vRHX20c1lQIHxdnj2CfkdJDcjcY29s1NULpqfZU3FaiN+QTAxd7+LlgVQY/HJZA9E7gEHtmzmkrP85+3tqnFaHD4TDH3skZd7VTPjbgjBB52Y4/sCd04d+SIqOrt/VPW+Ln+f72Go7hlqYkwDKWVaX0nEKHkfvnARUWMIzh7G5R7C92sPlMys+uT8+NKx5IUzqXpCcMNbPoVoo+GE6xjJAcuKcIf/CMMkVx0Rw3x+VeiQCmXCPFCcozmkSfFAKmqoCUkStFQUd/tfsvDIMpyRPa3s6UZEIMg1fB/uIH/2M+vaGlRkzAN2pH5wPbcJAjMZ6VD3QKKndDX/QLWobE4OnAyzL5lr7hSe1AvfvR8HY1qqkGy9Tn0WGICN+WhHFEEsGMl0EFMsGvIX61h9RheOoey1EcAzM92fYF7VfRKgorL3gF64IbReVeedE6czhsM2AYbG/HcGvS29s1ZurkOtvbtUx8QhvP2An74NOj8hA2aivTUb03w8mU5gM5LEbncmi3mNyb8oMhM/UZ2XtYCtHDGZcY82U+/nrdCHoXS9+8D/f64bZcI8UJyvv5vX9hGM2yqqYkL3xNJ5/JRV/0H336SYqE0T5cm9l9tL15e7uPGTiKhLEtbZPSc3rlg2mSc0lAW7fORdjGKJob0DKBdF6TVRIRA9hoVI+eCwAoEyWpQ3ANpYHByoE6pDFz80oDAT1lKdjt2surf7a340CHzV/441wlxm6bCr0qHrV2/T26gRnbZqyR/8+HPiUCk7QxOtE30+D9IUCWTE+9NZCrvDlPG576V2NaWVHbWqHAEAyYndXuz1NafWCF5O1XWAIVfFUfE3EsLvmC48vCu9QFRnMNzX3G1dcGKUOfEgN4SDtLp/TME95ZymhFOCoGsO/bYgJSVOJD40FNoT7pKUm7SoJiFeaG9/If/RN6j7n0uPyYPiTJZVKrOUhXHluhBfqMS+dgbnonpiZvaf+JFKp9ewnj0T4a4w9t3E78Z3t760CHKUl4DQ+fnuXJgk4lYViwK2MOfQZttzfOK3YYu7OlJyefbfOyavG4VZZVM7nndvghx0SNuJlpOTqi6aZD9xMsVmmICmY4kVyu3dLde9oJnrv8+g9/GNJhYLj1eU1JZFcRqyQiYCSMv8eVnfQSEvvZVn6PdqRu1MoDthVjKBIV8DHxrpTcGFBd0OY0HPLgT/NulV0vfQf7Q9ARYOx1UjoMtsejpPRKljabrZYeYbUkm5lrePHCCU74+zQfFkhhJkybtklqeUDezTmCYJxVk8wv+AAckeu8V/4BhiFFpZSgrYSR/VzkZVkYxjUtn77y7TnpZubSw58eSw/gx1N7YtbLNwfTqeLL85qmWXg5R8LAY/p5vZ/3sIiZNN8IQ2D5jn8mOL/F7cB/+8MY8ukpCeM5WXpO3lLpuTT5FUJkezuWnuUgIx+VqIOMNkqHsdb+MFBJUjr+Mh4pFtzTgoFiZh5Os0CplBK6/VOnmGzFZIbSbrl0oljLUyKxZHVbWg79x5QkXPThcYsVkPEVwf4sYWhK8tp352XzgMNcedfSMudqrZTI101IXIINhlrs68AilLNB7pKeA6MpVko4o4SDjeC/eKw6YQlDSkotgaJXYPqy8X4pOO8LBz1XZSx146qWZq9rtDKHR2cBw3hC+13u0TSHOMyLYYFwKcaGtt15SsKzPCypgT0qd4q54cFcii5Pi65bwkhp39/Pph/+n3lPdaYfkmXoZ8bCAbEYIUutjDkSEJ7GmObsf2nWth6smrBblqMJ4puyvMdfb6LQxdpfLv7HlCQ7AdaTfNUOdL4in54wjMKIeUZozkE3DLz+BWEqp/P83O7TlGT7N7/nQ5mPHdMqyYQsPcUwNq3Y4t2qPTCvqRMD6ARGlM8QWJVDU6zEVSb6h0moLNXLrEK3PBXnnGAY7LpcrAChAUWcSB+KUtcXIuQp4Ve8f+wc1svS8rFf1xccfxgaJ/xl8howiF1Ser7+3RmJ8RCylj1F/GNaweBVi5UgqyQoMFmqxNjrnkfDAS+6gSl9tcuUpPjDYJUES0+MwFZKqfmgTMPvl+dw/IRiC4GuwEcQqF1Ek5Wr5DtjPboTji8Qs0AnAsMSjHG0w6oIEssr8qLFKgkbxrDDgGFskj0HDnSs1NRDW4chyWGPFKRvfH/e/bNs+/hvabolfUbZE4NEBCPinS6ezlMTnaVyRntM0G8AGwvIy3z8kb5vJ/5zzMDLPmbgpHBqodKTEQbX4rpI6QkKOER+iXlZNXx6xtmqm7Rb9SkYxqoyJdHnQ3W6vNE8AqzmhtGnALcSDWACQ8HlSooirhOJquJ2W3aWWRvNqdmmJdpWy0U2WS79W8IQw/CUJEsYE3nzWTCMOUkYs3bHN6OvreEnDDNE8/vzrhYGdDMvBMSRDlvW75WCkkOSfM6JAIWe46RMw9ELwDA4KQ2G9aSUmVu1qgJzRS/EEi0K0b5mrMB/pRgLxmK042MPBWnDXRcYwPuagiCx2A5D1pkoax/+jJ4BS09JLhiQeZVEjbFCcvWylovFMF7/R8SEsP3YKheB2Jps0LLxWilZPbZqn3dD54ED4xNiGIf2YOshhiYmxYTaDwjq6H45jj+PbmDyLg75peEieimSea9fFP5bwhDDYHs7fSFhvPC1svnMD+Tn4Ck6DKM8Vjw7xSIlbva8ps1nMtziuIEj8rjF9nYbbk2IYWAaLnU95Qm8JqE7eP5QKa1pk1LNnAJQYA0q7Bd2mBCAmcr3hPxWkBKHSJQf8UBYkMntuAXdE42faFNX2vtV7t8et6T0fPQ3x31EwOqs9OTVBkgYIqzXtL/iAxHZrL7MEDGfJN7zZu+PnuMz2il6t6YkTAe8SqLy3nzm7e0oHPV11/RnzQZ57JZuYtsXxm3+jTSC/cecFKDs1aET60DysihxjxhlNBXCmzlTBqxRse3A0hN9yyOfHbGLvmkZfq2Vg5zYZh9Lpvgi3SMnwK9/L84lwUv4vVKmbtkWq0AbZT+CjsZ19LpIMbz/KTG7N1/WSswRbVTLUxPjg0dbL6iw3MZfAPbT3y7855iBl6XDeG9WW5E1tn+O0vM5rZLIRZ9haRrLsM0zkkUZzlZlEJPQmIbjQAefntnjVrO93QcZUTK33tQlTrLaGVlAtmQFj1D/yncdl45L00bTqm/cVKeYb5vE5df/HevYSyKPW7LD2KaVDVZJvFtV748fCJSer3x3Tmd5SNQX0RQoDoFgwfuzOvLpfyudwOP6umu7uqckmsaxTPnOwbz5TMuqSBirpPB86l+KWclN34T2k7BLlWEsjLn0kz94HmEYgk8+k3QBE8Jq9JSUne/JduLGVTF5GVg9IiXu01ol4dhFKzPRS6gRjhjA4zlLsK9rSgIzYPzxmYGrQc5V2SKLVgzHxrIBmyUJvThTqoO756wEhUlh/MV0zLbmXexucKfin8fvFvR34FJ4DQ+PW0gYiw9jzlTVkTAaABf0iN9SEIOtF7+loxLFMNitaqWnVkmww5iUHUbsVi2lGf4QpdxK4QXKbvA63kJXyxNgZzCn3AQ8t7QBolrcVlGEktB0tCVyFbVV7tq6y6H/VWsHtnNAHH9cSkV8dGJpycvylX9NYjtHCuJzIuwQ4v3KW5a37r7/XQ+ntO1fYriFC774WgNp/GSyioHJNcug4xOxlMlGMbx3r5bFZVhdSjJDTyTYZ8HPoIRbwcRmb2CcNSJ/HPL6xTRH9h846b16iZWdGPD7tfLxuJhQ2XzmvSSa9bDywdEEP5RF6ps7YYrCFTEYTNLXSdfxmKZG9+PMWGetwMCKCgo8wNDrxEEM1LRD9k10GbFvBbzovn/BHT90PI5xp+KfhzTG0vTSSz7I6Az+MM4w3Pa49bx8eq6Xx62CW+W3MyXJbfBTckuS4j5b1btVQ4cxPSYnwOu1+Ux2GGuxwxBWgcCxppEr0jttLQxKGwgZe5qkNmylKZtHF+xmdGlA/800iDafV1BCrKPJCAayHPtnf8ZKebpiuZL9F3xZx/XH++Nda/9LsnbUXhJWP2AYEW79/iy7PiqJBWJlqzonwoMNbEHH2vOkmMapAzADphtJ3sbZ1q5NYhtkZCWJhykMBlsoNhkK6kqo8PMgWeC9+8JZMQt95c8fQykZu1TZG8J4Ee6S4vWhT8q5j/QzU5KgaAu3KZzyfkXLqm/vTrY4xd4CKYHhZYr04CeltEX3or0sLPUyxGZa+mWfCefK4ueT81zxLA4D44NT8e+fR39Fh4HhFqPwVZwA/6UsPfEaTmA8GRx+mJLEra6MNYNTEspXX/Fih1GWVTdjh4HSMy+rjuTPEARc6Nxcn8bcoS66t0bYnYhV0Ffu3V9L9dftXw+nOOiaC/FcuT3/uN1INONR+eXYP9vGmYIgkq+Xmz1WSEJBKJYopnru+Lx9YiC6o1uAaf6098fVHlahTHdo2ztCBUp8aFy9KCe7F7CcDH0Rdg8Yd6F8XSECXe1lXdUTI+lJAuF8E1ChL8JmmZPVGBjXFTnRwZDqA/nFwHBsXvoMnqyM/1rZanDeCjtdMciiH8h6zisxOBcOJzy0zZQCVIRRsRGPpeBVYqRjsib1ShDDrMCKCWbj2Hn49HY9y4C64MgyHX/e63biPwzDBxndkGm4EAvDrRe+DsPQXhK4dScEw4hx7iQHibZFtQQmO4ztkjD27ruJDkOfDiPxUCuRQvNB9m0J35V+eUrEX+I5lCyi3mimMhRr1CClYOe3bb0kRgptLYv+9Zw8MaH7/n1xVZSPP/P7a7AzKQ29v9vWxYRqEOki+HMLo8K+gqmAJR3pM0ZkBZq0VIve4oYYAzYQ7HKFgdGG29Gvm/LTl4tS8hdhKfhb9+BKuiwcf5JyM0uNv7oLIJWu9OumOvGSQtml+l/4/h9X/LPHLR8zgIQROoznxTDas1WBINBlOLsShpO4tAVKUnt6ezkqUXYY678c55JM3ClGJEyjpqvqi6bPYLaqaFrrtmrkJ4E6+ovH6Q5xSXGRXChQIq4lXUQhLhLoXvv//4V/TBv0pdd0BMZhq0tJBjBqlmsxJAtJQ7BWmiVGjXSFf+Dr/y/8A7e7FFHwHCL5xeA/29t3afPZBTvQQYfRPb29278eYV4aJwbdiiXlsXTJVIAQIGBeJMMtLaviBHifvIbjD8N2GFZ6Phibzzx1cDVfaAGtBnqG0pK/NnCKoYC4+9P7t+2BGi21C0hB1EiLZy5N1/4r/Cv+fTj6w3Brlw238OmJDuPfpRd0GHPsJQn6b+jv6NEjMf0TaZsc/ZPvTYlx/8MfHU7//dsvpzf2v51OnnpXRyQ+GTqMFdlwy8uquZ7biuZKs7Hs5a6CwFUU3sFGNMSSJsdN5HY6/ZvvUFOfOrOIqFb4QzQ2pDSp/RvQZUg0pYFhlyg3Ff4V/6A/Tj5j89lFjkoUXvynP/hC+q/P/EFau1ZKpIIxfPehvH/4h2+DOsQcoF8wqRUyI/2tt0+n7+/en35y+FQ6e/79dNf40zq9vZxLMu1TrZAUHGgOkcUGRiBpkQIiG8TlkODo1R3mjPITM+/cmssxxe1jhUiM/6rvZ1WE9ntMS2r/AUAAW+Ff8e9D0p+XVbPHLWjuy1/4ZPqPv/8bac0dGORE4Fts+vvDP/xD0MtkZw5CRLWw0S8H50Cg78tA5/SF+fS+dkVelzb83tWfTE/La/jGiY5pOHUdjLG6a6cjJn4lc5hRJFOGP+fcon+xCEkgUcqN+wKbiG3ybVp7V/sXxxA4KvwLflX8EzrchP5YJWm3t2s39MbR9OC0TsGTHsvfYMgph5GJ8QlTY3y7yelIBIJyYRyjq9an8Tvul0HRWpnsrkpbJj8rCUOGW5lhjORVErfL6AhX80qrIsMSg8uUNLpU+bb/Dhvp9B9P1koYrkN+fpncTGm69l/hX/FP34ygj1vTH17DvayKE2DR/433T6TrFw6p7mxD/zAOS/Wjo1pkJyghWocoowMqZ2qWcc9UWrF2i3Y3rpfjllXpgcnPxW5V22HI45b2LlOvbx1Du4kdFtVlHLRsR+Uxn6BnpagMMo/fjlYW9784zxXjuaMR16v9o+Op8I/PHjhV8e+n0Z/9YZyTDkN2GBDUjUvH0gfvHhCz0Lq54vxv6G/lqpX2oWPx3jl8mqBAXQC2iNhWmePr09iau2VYs07MY1V6cM3n0jZJGJsnttinJ5vPGs2HO8j9uB0Yj/5gEjkv2ieNZ8nTC2cO9+8H9Rp9axUaehY/npbvAzVoqPafNU8V/oFuxjojWMW/W9DfASk9d+n09gsoPTU1mLlyPN24+LbM9eca+mfrMJT2/wAAAP//YFGZggAAQABJREFU7b33sx/XdeDZL+AhERl4YAYYRYBRokgFy0HSOMrjcc3YW5Z27JXo37ZqyzK9VaL/IJO0dzWu3XWW5GwGgWAURQJgQCBBRCKDAF7az+ece/vb34cHZokcsRt43+6+fePpc8496d4euemmm+eaubmmGeVvbqSZa0aaEe89RvLkeWZuaXO+WdXMjCwl26Lm2svubm5d++Vmw8TmZtWiDeQdHRShHipr5kgasaq8LZX5JI+snt8F2yc9Cmf+USqhxiiY1ZXntOX9bOeZ4+jb7+Hf49+7o7+dJx5pHj3yUHP8/EGoaKRZPPtms2TucDMyMtsS6kihqZHf+/rX45KnSbgSaaYE0dUSJ07PNPuPTjXHz84158/PNFcvu6u5dc1XmvWLN8Ew1jejI+NJ2dJqOawmaD6qDFZUn/AgGdMsHYwi79B+8AO7SL5RGExlOvKakcqVTOzbr+CP19jDH3D0+AcuXJr+dp18tHn08J/DMN4Igr16/URz/ZUTzaKxikoSXtLWyN/93d9KcnnvVXlmWszpJEiUr+ze3/zr4y82u1490Bw6crK5YvFtwTA2LNnUrBzf0IyNjEW+INhSuc1Jv/KpSscicDCJwGT7kQOJIp1yWYKE0r59ib6ZZ4HD+u1n376AKHAopx7+Pf69Hf3tOvlY88ihh5sT5w8EjX3lS7c1v/ubX2iWL52ICVq6GhWpqGTk1KlTKWyIZGoVnjtHEuJc89Rzu5r/6//55+bJH73U7Hv9ULNx/FYYBirJ4k3NClSSMSWMUriVLEpKyBBzKA2jShWdyr22E+Yr11YR5UvZ6JIPCyerz0qpaDLTopaovG8f6AhPjgQrsOnh3+PfJehPCeORgw83x6cOBMJ843d/ufk///f/pVm1cnmhzQH9jVyYmoK+CrFxahEtiFSU81nTPPnMjuah//F9zjubva8dbNaPb21uQyWRYayEYYwiYRTszHOUqhUWaSXS/Ek09jRE7KUbkW1e+4NHWVd31pxfbVQfiX37+UJ7+Ie0PB9RevwL+lPCePQQNozCMP633/u15jv/x9ebVasuA2JSXv4G1c7NzXLOxErHkaP8RCautz39YvPQd/+hefLpXc3uvQeayUVbmltXwzBUSSrDKGW0KczBCSyrhDAg7nxtYUBJ0YGmySXX8Ohc2qdRntm7wTFHfQhHMJMowjMFj/lH334P/x7/3j397Twhw0DCQCWRru77+m803/nj32/WIGFIfgMSwywwC/VFQn1Sz/Oo8IlgGN9rnnh6R7N730FUklvwkny1mcRLchlGT20Y9QirRCuqmNqpNC4H97YeRkuTutyFe5mB9o7gLdRhlnoEOMgwMjvSzNLWYFC2Vuo0cxTyp+SIy8F9334P/086/u06hZdElWQalYTZ/Vvf+I3mgT/+783qlUoYwwceVGX/7lGJqSZLaHPNE0+pksAwntrZ7Hn9QLNxbEuzBZVkcvHmZuUEXhJnfgk1KNQyWa5bs2mSPaqUKjW3pa2aNW4Xbj9YX+TjBxewRVNy4d4bpY5PYvsyTeAx6t84zFXYhNiVQJ2daZrpKcDDWfj4uoW/WUYXcT1GGXm9YOeYmUaqmyHfDGcBXN+j00pUacEe/j9L+LfzFF4SGcYFjJ4gwje//jUYxv9aGEa8dPAj3/8IGkm+/cAGEWThQ5Xk4e+mhLEHCWMSG8ata34JGwYMo7pVqcMGPaxfbUfkNW3WczziTh7lvX0xDwg4p9PcspZT6oh6zFDq48q7wRGFua15PNdylOL2k9C+8JXwFy0eaZZcNtosmhDmjB1wOv6pcyPNuZOzzYUpIDot9DiTPrEMf/vykcg/sTTh73u58NZcc+7sSDNzfq6ZuVDeFaV8C0J4cHiXLHvw9JMH/58F/Nt1+hGMnn8Bw9Ct2jTf/L2vNX/aMox84/X9h4RRb+JRe9NeRHKoJBg9n3jqxSYZxpYweq6HYaxAwhjjXyg3MdvTbmCXP9QT3Cn5kpce5UlcD7XETSB8B0XbvPHA3ImiyWIgGIhk3FmS5yNjtvc27Zey4rozqDPwDH/RnFWXssor2cv89S47FlfxtLYfPm6SP4rxK1UsXjHXrFgz0qy5YrRZvhoBgI6NhQ16pDlxaLY5+HLTnIFpTJ/PYTqU1ZPkv3KkuYxySykTMyZwOHlkrjl1dK45eXi2OXNMhkFmx2ahS8D/oxw/WAV6FdwqeGZn7Sq//Nl5zjVPpLdPzBRjK8lxE8PspJZastIASJb5OLz/D2P8O/CSPKYNAwnDYd+HSvKdYBgrAj7dn4tUEhGDVxC/NaN3Tzz9QvPn3/1+s02G8dqhNHrqJZkoRk/kWpHOvO0RkB7UFVfmId1H/jHZlZdrQs5o2X54fkly9oucKD353KjSDEShDOWXoGotuWykGcOzO7oo67WtaCBesOWzbwavzcgomG1npwxCQ2Q/l4wjgE/+jHR99+1H5TTxUYx/0WKIf+NIM7l5pNl861izFiYwjrQRagZ9ev3Fmeb5f5tt3tw/17x1GqgwdqWPa7eMNtffNdKsu3K0WXvVaLyHGVSRA6/MNIdenW727xhpDu4B9rwgVRQLXgr+H+X4W4T7iOD/s9D+LlUSGcYUkZ7g/31f//Xmgfv/oFm9Ynm8Wmmp8oR5DCMfdXJxmWlKFg/9ZTKMvRo98ZJsWYUNAy/JikWTyBdgIf+lT9FrcCSyRWp9qTIA1JA4yslrOyXRtulxme1nNwY5fFSZzfprR5v1V8M0Vow0E0uph4ellrwponM0xSw6jXh+4cJsc/5M05w9MdecPtY05yCm6XOI4ervZoSwspJ3bt8+B5P5CMYvs9ywabS56qaR5vpPjzXrIf5xmEgwDIaw57m5ZvvfX2gO72mCYcjURheNNDfdO9Lc9gtjSBqjzcp1OWaZw5HX55pDe2abnY/PNnt+NAtjLQwjwLAw/D+K8StFiUbjTBBjjMeJxdUJYXfh3Wm3mb4AAMpkEy9TvGAcMQF9iPj3UYxf/K74/0Hb32mkp4FbqCTW9S28JA98G6NnuFUL/tOexzyGATBNjEfD13pHHvof/xDGTxnGBr0ka75aQsOJwwBDg1l0Kyj1qNm61kN089os/vnO4n2WfCZ6L8HHNafsS7dHmTlZSyL6TfeMNjfcPdqsWDvSLEfEFpmijlJvbd9K56ZhFkgUb52Za84em2uOHZprDu+bRXRvmtOI4lMgWTAM+8Lfu2k/2iLjRzH+JUiNV31qtLlm62iz+bbRkBjGJxIGDv/VZ2eaJ/56pnlj92zYMsZQYRYtaZpbYRb3/tp4s2Ql90vtfPb/DAz0xJHZ5qm/n2leeHQGKQzEBGZ5kKm9Ku9SGPn4pzz+kXHsNoxzERPEMqRLJUvHoIrp31unkKhO1nfyk8W/j2L8Xfz/oO1XhtG6VfWSwDBW4SWpb76+95ZhiArzH2am7Np2VJKHUEmeIIBrzx4ljK3NVoyek0uwYYxPIlxIpZbwBxbvKIIbVCQz3bq00kvoplPGt0yZCgDvMyfJcUQJ0pSleWIRXKlRPWka/W75ubHmls+Phmi+ch2q0Rjp4YopNcUpr2e1/qOOXECaOI9x79SbiOuobgf3zDQHX0HXPzbbTL3VsWtEzxTGL91+zFgtd7Gdn974l60agWGMwTBGYBhjwTDGivdD8L36zEzzw7+eRs1AmsKOoY1n8ZKRZuuXRpu7f32iWQbDWcR9Pc6cmMV+Mdc8+b2ZZgcMQ6/JzPTHb/xKVsvWzjVrL0elQq1SNXOiuICKeeHsLFLSHOoVb4L+h0euYNVPAv8+yvcv/n/Q9ndGaPhDSBgHQQNVEm0Y1a1aKTPpFIYRgk3Fl0q/UbBwgHhW4zC2IWkoYUyOb4Fh6FatgVvVrZqESbtR3JNPUgxkcIWWsiGrLhm99AgRg7SQHQeInA+Hc9eSt/3iWLP150ea1ZePNWs2gNzyLouW4sGOCrPRvVhwJ1o+fwbj3ommeW0nYvgPZ5qj+5A0YBoSylzo7rXlPNc2vetee5dz7k93/MtWNs3VtyhhjDSbbh9v1mP4HGO2lXgcpwxj219PBTM8ezo7vWiiaW75wmhz16+MNZetQpVbTmbzM6CTR5vm2MHZ5kf/Mt28tE04QHTCrBzdMXevf9rjX4EatW7TSHPNLY57LBjfKJPEW6dg+kwCvssXUauUGBvfZbz/nwz+JWg+mvdfUJwuvP/2ZRgR6SnD4KVGHMb9uFVXvK3Rc+HXXzuyXZWESM+QMPYmw7iNSM/1EemJhAGVFlKxzUqrceVQxEd4RTIPng6UExLj6JbyeQ3ZSmVGtSJGUxvhrvKU235pPBjGOmabVTAMGwsdlwZlEOdxETacNfYtYvYdWzRgKhKE0sbB3TMQ12zzxkt4FV6lDLPU7AwFXINB2wu2b7/J4miVmKI/3HVHEs9IMdu7HX/MGlhnR+iwcIj2RXhrnjf+JRD81bekhHEdEoZGT20Uekk8djOmx2AYR17FVnPSPvIHYV2DgfSmu0fCfqEaF8FLVP7mG3PNUewYu3800xx4SWYBHJToasPz2o9ulWf10XsdfzL3QSmJm4mMWhNqMf557a++fKS5+mbGgRq26bbxZim4PU7206hUJ1EtX3xkpvnRv87gGRpppmEY7wr+dCT6Qluzti/CVPjPa1/YVvyrL+X9jt+6hrHmveH/B20/VRJCw0PCgGEQh/GdP/4GkZ4yjMqIopPijwdNMtqhR4P3J5oSEv5C8+B3fxAh4nv34iWZwIZhaPjia2O16uhod3l7B3SFs4MB2WJ0IYdYE0SQbF8koazFiyRiKREGOz7n4rkwMQwg1jDXhISBTr52I2oJRrwqYYjsxiGcZdaZOj8bxjH196XEH+hJSOSgKdo6gS3j9Zemm70Y+iSyMxhCZ9TfaWuh9lv3Lf2I7orkcgRv/InxWpjrUI/sdB5eRbZ6P2/8Bs2Kqh62P8vzGH8wEMpaQRn/0pVzzdXaMGAAeknWXQWzgGGk0XOuefXp2eaHf6PnYxaVJNUxu7kexjJ5HVIZ7tWV61Eoww072xzZo01nrjkO49AYHK7n2v4l4A+Ayhg5v4/xy8BsH9bE2GQWgA0Gb1VWvRD8129qms23jzTX3srYYZhLV/DeKaANRobx/L9NN8/94zTvnZgSJcV3wj8BDpNWSrHhjFnptM/LvRT+RScTgQfjLz1/P+8/Bv4e8P+Dtr+D0PDHDj/cHLuwn6bnGz0TBrIwB9faMLgbPvJ5m6Zb9UFsGEoae/YdwOjJ4jMZxtKqkgTGUeVANoh3BPDjZUnFNsr/cJWSc+iIfDXFNxYZo0x2pcvOyrXVUe3tv6RKgi4Lw1izgR6IgJQ8TxDS6eMwgp0zzYnDxCssI14Bw+jGzSOcEd07xsEzENOxA7PNK09h7PsPYhEw/IlsclPbHzO+g6hIxflxbQQYD439cDaXwGUuM7hp1Zmn8MLM6q4lzbJB9Yx/DEPdeClvXZVhyWgkTJKiLiWgReSdkXh4oBTkLCnzmwmjLO0461P5EmIorgmVZDQYxvorqYPyIWHwXKPnD/9qqjm0G8aJDUMjpr26bB3S2CR2AGwgqjUj9oexqpKc4u/MUZjmqXwPqbQCBzosPY3SN2E34QJlXdkAO14vY1DDnZZAIXi9FAGDqEB4M37yCwfbs1z8yeBIdzzCYfqCgWPEjWBsVTW0DmEo49B1Pk49GzaPNTfcif0GZnH59aPNYgy3wvMtxnjizabZ9fhM8+P/QMLgnfheps6N8j6pg/odf2VSepTS00K/GFwsuqad2Qu0S15tXrY/0/WgBU4k/MU/7Sf+2b54ErIRY9GeYoyP4x1D/BnlGVkCp/TUTWF8F2/iiAfl2lzvAf8tGgdtvh/6CwkDhuHydqoICeOBb6OShJek1B1PAkfsmYcnm/M3j/aaiyeewa1K4NZ23Ku7YRhGerpadf0EDMPQcCBtfo9avtt535PpbZ3eiSEQhamRV6yjO/xGsnlHY8bhimzt5jkFmFGSR7d9ebS59edxEaKSrEYlEQktK/IcRrx+HtF0/67ZZjkegfWbcCl+dqyZ3DSK7j4Q3adB0LMYQXdtm26e+YeZ8J6cx/g5AvLLNMJViVSyHGObjEfPgsxDr4ORlgZFhcENJLhw1rZBUhjWTCFsaWZC6YY+6PrVkxFSiiMvSD0KoVvXEhGQSEzjRRoQ6jzIqmfnLFb/C1j/JQKljmAYSI1Xb0E03zqGaK7RE0bWlTCQlrZh9Dzwql4DDZgCN+NWlsIo7MeixUILYgJw4VpmLGdxM5/D7exandbMBUFJEONL5hgHRMp4JGCNrMIhiF3iklHwd4HNlrSbROyLbeLWN7p0QiIFlpYbl/EWJmqkh7ExEW0K7M9TfurMSJyj37S/GGaxmH7LJG74zGizkfeoVDWxGOkThDDWRClD283LT0y3Ea6n8Ii9dTwJ2PErhS1yHETHLllupCxjoA7tP/b3AgzjAmOYhXmdp05hZ7Ss9pBZXybvreLf0lVzzfJVSDjh4vVJHkbYvvUWgXHgyhiwEl/q5HIBXDtznAhcxifsPwj+ByJEDdlubT/qJF16ejv623nyEQK3HmrenMJVCK7/oUbP+/GSrChekhxuVJ4qCZfRSOdBPC2E6XUbGs6akj0sb9fo6Y5b7fJ2p5puJW1ZK+XwbfomIlNpyFPyCFJ5HmXMXI62DkE6qD6qqnk436aE8SVUEgx+q5Ewgu/Q1BlUkSP7Zprn/nmm2fdjGBHek3XEKWz5InELeBYuY3Y1RNq69ZxMQZg7t8002/92GmkDLwqu15gJkSAuQzJZuZ7oSIKkVl9BGDblFkP4EoyzlUSigc2ISmfow3uRaoC/8R1TEOAchLdyw1xz5c05s4uoUZa6L0AcMhlnqYglAbkm8FzMaT9gsOcgujMwiiN7Zpujr0EQIO950pwtdauG0XPLGCK6DCOJQaYpSFsvySswgVO4SZm1ZYDGblx5I5GhjGsxTFDPlfBXbTn9JjadV7Fl4G62/XgN1Kc6J9NdAYzXAgOltcXLsq8Svv05d474Fojh3CmDxZqI6ZiG+FQ7111NzAgxM8uxu8hwFkFgMlFxYHQsEcEZXUZlP04h5Zw43IRdxXu7aETrxhtGgmFccYM2K6JVIdaQqKhCWMvoj74+EzEl4RVjlt/7IyXNaWZ0+sk/JcyV61HNwIfLMKBq+J2AGYV7FsDZZxn+Oeo6gdfoCLAIyQuJdUqpgLEG4nC6/EbsKeCT787JxI66FufYG0hrGNCNprWPSy6DJQInceIY9sV9qL/HUYUDvh8A/+kCfQE4/M9O5bsMgNVOxnM7baZCTZ6A2Y4TRnrWHbeUMMriMwO3BPqgBLxJ7ImUHGhcd35K1RHh+fBffg8JI1eryjBCwlhs4FbuuNV2hE7laykV1f5TWTuueGTt9NgBBNTMyG2cBnUELjNWGUGIraX+muNWGMatqiQYwlZP4lZ1jNSjAezw3tnm2X+eDoPmFIioseyOrzgbpxtWRMn6U8zf+Rgi/N9MNUd52TIMZxwlgg1XM5tdP9Jcwcw2eV1a5ZcxW0b37S9IeQGR9xTEptFw7/NINS+D8AeZnSBuGdLGTSPNFmwtV1KHDMhZbQTKPoeB9SyzjWtBVoBY47QXDIMxOGsbU2C91vnaC9gZXsObQei2MSUTl80hlo8219Y4DAggpB4YkUcwjL+ZxktCP4BHDYO/ntl5y8+hwuFZWrGOYQhYAKFadgSmtGvbXLOP9iI/9agyLEP92UD9MpsrgMW6K7EdMNtPyDSQVGZgcOdgfEpCZyGUvT+ebV5+EgaCdOTr3UQfr/90GqZlvkoaroHxfYsvti8czzpepIFjb+Dq3j3b7HsRwsKmIqw3IE3ceO94c/l1MO8NY7TNO6JteDZHSl7Cepp3oZRgtcLw6e+jovwbKgoSAtoQKg2MhzFceQOeJepcCtOcWDaQTvUMKemIQ0deow/A/TAM+8g+4IhUMEc9IrPkczMeJ9XiFWthqLy/GA0M441XZhnDbLMat28wNpit0p/v8nWM68/+YLp5Y1f2+4PgPz0RhBz1qlJGJMbDIK/scslb8482ShiPHnQ/jIPx7JvhVh1e3t7W3DKMUnec6tOaxv12VJIHY7Vq2jAmY8etX2I/DBafGYcBNdvNtOmXgo7CuuYfpM1htBudC4drPm3zcuHogo+URG6DqL2tTJK2QA/SR5rbfzG9JGtB/pXMOM6uVuFM7Et+9p+mm93PIv4xWxhGfTtu2GvRf9dNjscMKSNSylQc3vnDOUT4C82bEPq508yi6+ZCqnAW1xvhDKdLT1FeW4aYarfsVwQMIaWcQfw9tHs2GMa+50Ua1AikjytuGm0+gytTcXrpGhBUsz6jmFa6AbmdpSUgZ8saiOQ4RH713SP7jS+YDea3fxdSxluzobtHHAZqyXV4C9YgYQxUko6E8WpKDxKTksAtMIvP/OqiZgWz7HIkrSqVGUKudLTjhxp/gTCEIexXYRxdezWqDwbWjfR/JTaQpSty0Zv9DqMp9V4g/wyzvPaCV1CHfvzvM2FLkqBv+MxY86nPwWQItJpAMhqnYtuNg3PAkZskdqUzpAvG/MrTSAsw/rd4f+uRbAw6m9xkPaqKELkFS+HQFsq7mImXmu/lyb/HCPovM/G+lXCuhnlddeN4ELl2nFCR7Iv1AHPP2hccxxmkCqUMiVwGrIH8rZPaV2iIjHd9Zby5+2ujuHaRmmCeUQV1qBqdg/m5bGExEqkSpHWfYL3Oa7uQfL+X9jVSB+1a+j3if8zCVPx+6a/aMAzcsiPf+j1Cw/+EOAxUkjgKPLweSBje8WBIArDjYgtHjcOobtWNxmGsRiUpbtWRwDiRC0IOiFk5Bct13AQsGFY0gijGfeSJbMmtu+1rhJsLjLKictS6ubV71q9bdcvPg9Awg7VIGA3/JQpftLPDs/8Iw8BNqLi6Ci+KDOba25BGMJKqX9qExK4YugOV5Mm/nSGYixnq9Gyz4foxbATMjngg/BOxNNxZf8QnVESnHy4tt0MSv6LmG8R2/Bj33gEQTQPs1azf+NxvLWJWQ3zlXajPOpw4KBp1chNp3Mes73TI4VgVZUW255CYXmHmdnwylqtupo9bRyLScwOz2agzrshPmd0YPR//KwK3YGDO3IrkBr7d8dXR5t7fhmBWO7uWNhiTTEkmq8Fw95PMyLiWlYRUA/TG3Hh32n8WMVNWYqeZmMVtcLA5UtO89MRM8zTMWluGhr+bYRZbv7QIgy79A4baaJQoPIJWZZSkF5SLQZ88OtK8tH2qeR0blERrkNYdzOaT1yCJOU7KCDD74BRSoBfvxvfjyDScbpdh/Ot0LNCbRFq87s7R5nIY+DjwjTooKvwRDKKM8Iv64EZKWeLGPiSmFx/HHvRyepFC1ST/PV9b1Hzxd8Zg3jCwCUdSjtId640e0hntXCdRszTEP4XU88aOeEhb7x//s6cO4P3RnwxDleQYmwBLfwZuxX4YHZWkDikZRhlYTSzDC8BlGvth4B1Rwtj+5CVsGGC/L8eqBkemmJb4O8gRV7Vde1nchLVsfeR9rkYEoGQbEb4W7hxhw0AlqXEYlcecQTRWl30e5N/Pi9G9tubyptlKZOhV2BKcWY1ytDrFVw1bL20HyXmREqaGzOvuGEXkxAV5zRj6Nytm7ANIKgM4j/itjmwFumqNoHSgIogGOw2Nz/3TVIjUhilfcdNY8/nfGmuuwHZg/ugnRZz1nQ2VIowJCYLhZ4mqCQxN2EiISiJKLy88Ot28zKx7DBuB7WsXUQKqcRgDt6pxGDPEYUxHHIbwiMhHunznVwgN/63xUI3si2OQKR19PaUYYbYbl6zivGqHhmKJbCM2iJUaliFsX7ZE6SwsPCKMXHBQlx6kV7Eb/PjfpyMOxh2or//0OBIGZbkmSzDw8IAwNkO9fR+qBu7RIRzNI1N8DdvD6zsV8cnD8099PpnWcpidElnUZ2YO+6P9wHfzFipoem2Iy/j32WYXTDZcsUgXG2A4xuwEs6DctEzBcVDOgaVxtjAT7l2Ad1jVhIlnL+qJ6pZrkXx393xtvPm530Fa5X2pHtVDeCp5OkbhrgH8AlKhjM94H43xB3eT6QPif23Plm1ycGSKaW9Hf7HjVnxmQAkjbRhGeq5pN9CxhhzXsIQR2f0ZZKhJsfjM5e3si9FdSxLfJZlYB5KIQZSMogAaSJWoira2bq1B/CZYhr8K5sEQa0pkKZnyaf7WdFSML2MbwEtimPBqYgokaDuihf44OvlOmIChwiK5do4bXaSFHr5E63V2O5iFayheeYooR3z4Z4n+dCwip8S1ChE8A5yyXSWIExjldHX6/YY1V6AOYZdQnUiGheEQffeZ72M/wbjlOpXLMdJ9/j+PB8NYzKyunc9DglNd0pJ/mihFy0v0qxiLC8NagmDgMqJdzNyK6QcgIJH2yptdTzKWoeGI7KHT480QqorQShiHd6ex1PgCx3X7V2VeMAxUrFbCIP1NGIZh8j/+D8RvGIZ9WYG94a4v48b8LPmxY2jw9YVJLLEu5yTMi1lTpmH9GvYmJmYR4WEa9FNvg3BRDbgeBuwLV1uYgji1+9gfJZb11yAh8g7HEN21w3jo9dAO9ToMf/dzME4KX4Okpv1hPUS/DLvPBN6O1EuS6HXLnjhE1C5Sosxbu4VG7wNITrdhHL8JKWmpkhXjkLnpgdFepQrr0n47uIZ+LMPmUBmSfT5FXMqb+/G+gE8yVHFEie1e1JEv/s6i9H4xjkRmGIRuYZiFY3Ai0Ch+gXZOYH86uBdPDgxMe5ct5mjzPJwiFDgik7mEQd6aLLMR/zKV25LvvdCfy9sfZ/HZsdhAp2EDHVQStugb2nGrdBKGkZv0Cbhon5/a+UzJzoUN4/9Gwog4DBefVaNnfshIG0b3sH6tGtoZ2hrVP+QUQ4cIA1GQbBldp6oiHplTuwjXlDW5ljaH1wLqdpB565cS2XSr1q44Y58+DmHthhAhRqMBL1uNJII3ZSl6rLq39RrTIEEfRHd/FaR8CbVEMVbf/qc+N97cis3DfSYkFOHkLLbnxzPMehlWTjdgQujEzPQuiNJQal/fBBme/ZepWPWp1+VykPze31QlwSXJrJ6zm32jnzCK1xC79+3ALkB5XZAGYukuVe0wzTHrydmDMXIPM9xr/FlWb8FVnxopa0lsv9YNwT4zzVoSA7dgoHguZkFw+6bh93P/RYZhW8CMcZl+RBsGUa+qJHuw+6h7rwZed31VMV6xG7gxRvuiUfDkETxCEOLeF2aC2GQiYShG2jL47SiGS4lWZq19ZT2G0rBR8G4koOpBWYrufwOEfDVjXs57UrKyT3qPDtOn11+cRrIC3hgMl/HulKo+da+RrRA2kokMyUO1TY/Kq/Rdhjc9ZRwL0hn2Kd3Yt//CoiinxycMroxEqULbzUHG8QbqhqrgZsY6eS32KvBFBmZfZIhKoS9iGN+O692+TMGc7lXC+G8YYAts7IewtO96po6+zsTFviTanLR96IVSytC2ZV8/KP7TNVuM3/rj3bulPwO3Ho/ALff0HGnu04aBhFEZhnXZRpwHRs+SnKklC6fMFhvnGIdhANfefbkfRtgwFpfArXCrdqsuVdQkiBJOUGrLauUd1Z3XPum2H5AoFcg17DbcFFSKS1+KhxbqLeFWBbkrwyCLRO/MfRoPhC92OaK1hLoYMTaYijyOOnSJHnkdDwTWeK3h+9hDQsOhnoyb7x0NvXspyBCrOimga3InPv6XCPI6fTS60Nz28+PhAdC7YVyBx5tINxr9JPAje5vYs+Ke3xxvrpJhyHwgIofoJjdHXptpXnoSGwrIaHyAHhONe7qLrXOizFxGrCpZqNM704l4GiG1Y9TVqhJsMiMZhl4fbBgvi7wZBOaY74DJasNYiXtR5iQgRNyjiN2HYJxKGC5vvwzL/yRqyB2/MN5sugPmheoQ0ZCUUF04gCdgH8zipSe021A/DMn4Cgl+BtXAhXxKfJZZgpHUOJSZonppw4gJhBepe/ZW2rgR740elBq5eR437fGDukVd3zITBlnhb4Tnp4sBWQOsTFWiPo135eSR9Ig8izvdSUMGrxq19koYhvYuGE0EqhX464Xa8zxRvs/jiXrOiOC55pYvjcOsnVzS5ep7Uj2bxdApbB7//6bD+Kkd457fGG+++N+UMLRhmJNhkVeJ0Xf7GtKRdo9zrFvSY3ae9jxrz4j1Soz/g+B/Nki70FdiVCEMu1KT3ob+/PLZI+4a3q4l6UoYpYJyuoRKMmgnOsOPAVt/xn4Y21FJ9uxFwhgjcGtt/S7JJHH8zlwJrOikIoNyZzCJIPFaVaRFCHCk1FENHjtoAVhqy+qoapY6Y27j2rZEEHt6K0hw2y8wg20keEuGQbpIqkFN24AvRjFFQk6XI3Vn4UAoCekALlBnpYOvKiYy6zLLGWtw493MZJ9nrQIMYwzCtUkRcDcIrOFKFcEGb7yL2IAbxmLWitmOjLrUXsBIJuEdQQRVb5ZhXHGj4jD9LLPicRZ7ucReF+QupRv0ZeH2mV8eb+78KgZSmRwEKHgVcQ+hMqjTv/QEHpiDM+HmveZTGmbHI3ArxqiqRddefXa6eRwJ4/CrOZspAQjbO7883twbEgbSFnYBDxmwNozDe+aaH2F70Mi3BhVu43Uwry/gDkba0eAr6Mx7HE/SS08xPgjt4EswTyQKYcPjUItyX9B8k5bR0Kv6M4YRNQyfEHmqHslgZHi6iFetZcwwd/m5QWvHaOd1+vIsbtHDu2VKRLcSd3L3r+FxukHGrmRHh2jZyF5dzhK1bksN0EoYBndt2ISHBfuVAV9jYwP4K32+SGSoBmLhpIS2+dPJlK66EYkHCSbQ2Q6BRy9gyH78/4Vh0K9zqBh3/8ai5ud/hz7EZCFwyCYseaeHiAPatR2P2Yv2gz/6ropkQFgYfSVkCwwd7w3/pZRR1ZL3SX/hVi07btkb9/R0x62BDYNEumj1LcMor3XQbTHCt1yO1kvSqiS3NLeza3hEes77zEACoEA30CeRKBoNyFNpcEMBlW3Yvtdxx4/GKqUPRSR93YOeZIfMH88pVo2eYcMICYP8tlPqlNt7RB12q20WvRU9VCJRqtD1ehzVwbSVxCZMbkYM/8x4czMI5gzYnT0OggjHEGNnQEixychRg7oqQ7K1YwdyxeQeDGWu0TCW47N4Sa6AACXSGukpY7G+V58y/gGdX3EdQrkX6/un2bNCVaraGTSg2d/9L08T/jwXbsdJ6rsSi38ub3eGV8LI8bugzuXtwTCMwwBBZaR3omLc+18IXltjXxJBxYgwemIzcC3G6y/MNeuQLq6AKG++B8mINsKeAgyF/1FsNM+xqlX1SFjoBhVt8mfw/pXm9Dpcht1gOXYZV8iqCilJxdJ6yij2G+PhNoPaVTT4ytTdEc3Vs6pfrqDVFhUMY+tI81lgo3QVYf6thKGaRHj/v2E/wuBseL9McuN1GXfxqc8vaq5DOglvTLHzuJz/GVTHl1FhTqAm+J6vuQUGTOTsptsXIYUJz4pATagk24jVOf5GSlmf/XUljPGOSgJ0YPpvvAoMcX/vQJUySEu8c9lC6tgBqLbSD4L/VDLvsO4B/H0YuH+J9vWSKGHk8naMnm7R90cwjFUg3ryjbAI8nGpz0QDnIFZenAwj15JUoyc2jLUlNByGMcJ0WcvEBfARUQKBSBAg7fNorqSVxlJ28Cbgmnkp0DKOSM9cAt4MdCvql2FsKV6SkDB4udFWeR5WahhQjRewnIfVvIkI/jJi+35sBwbanGWGUiJx1eflNxnbMNrchHVf/7ozTxSl4DkkC9Wd6iVR1dGIWvtl5SJ62AKUMGhH0T4kDFQSpQYlDPmm+Q4jgbyMiiPDMPjJWIa7EXU//csQEHq0G9146Il4EwZzAElI9UXJRAnAGA+9JIaGt4FMFAmVBAlDyUn9OyQM2rzjK0oYxJVo/CNC0cN3JcNQl38BG4bqmeturkbduQEvie0wMbc2ImNCnvoeojzErGqk+hHM2eo6718CVKow2EvGpt3BmBnD4GMvVup0HccimET1NEQ69RjUdvIQKgnqohG72ktUIVVJlDDs04qikkiLSgsnsQf9GPXFuAuZryrM5TflRkM3EQtyLdKJDEOaEv56xJ7+gSrhNG1lIJgrYQ3uuw41LBY0mp/Doe1i6fx2xq2NSiPp3b863nwBhiGTq14S4azx2G0TdjyKysOkYdnB8eHhv3UyjEH9NtSBv0/ejv7cNTzcqhfggORUwvjTYsOo9M+DbGNgw2iTvCjHoBvaLtxAZ/vTfGYgFp/N+5BRI8OAmyMaISCVDlKeWavLOOx6bFReqZaWZCUaH5O7WEsOsHQxIRGcp/ssCsazDA3XrYo3Y5IkMQdksLyEp3tNo5fh2K5/EEtSAlG8V23QCq+4C7ESrGUE5dpr0vuwmT0mrscApiW+62PXsm6gV0iBgslqo9+8qTJ+GYGEp21E5JrcjKHxPxu4pT7PLBd91NaBoREJ4xXiHnaxB4XrDLSq3/3rYwRXjWNwlaipH5gFw6BeGYZ1S+BKQhKigVvq6bF8P5gmxj9mzW2EuhvpaQSmEYqqaXf+p3FiQojDcDavcRjAWKu9Ksnz/zFNVOkMYc8YIlET9G5svI6tnu1z6bf2iyf/IVUXCWf6LcRsMHX++1+ONKGH6VoMmtffgZ0JNccIU1FAGKRo7vjyvfj6qIQDgyRM6DjMyKjTsGHsyXdpZGsEwcF8ZRhKVdanvUpDbKxWJQZEL5ZM7AqMwnqSbrorXdCxaDDagGHDkJ7+/hQu9WkWHWJwnTBGQxVvpLnh04uaVUiOg883EF+C7ehJGIZqZjAMJJ0v/lfdqjLrpBljNw7uRsJgIortDrGNOKifBP4LKUAVtb8f+ov9MA5jwyAOw1ruKyrJaj5k5H0eOa5QSbpcJFqOHCVj5PO7JDuJw2A/DFQSP5U4yXdJtiJhbJy4Nvb0dPGZ/oyQIywaA/DETRC7CVyXZ3Fhejwu6kU8lDXaAR/EQ7CKfJ2oUKuxfh/7JXdtGFtxq667nEhOwoXhXVGF0olhvK4n0aK/DpVAQ2Z4RyqxMlu/goTxusbOHRgG8ar4ss2r9+G62yEWPCATS0DKYsy0d87WbvPHl6BggHZIZBi4t8xjRKARk9o6XP16BTYOYx+GvSRKDKgsiPcvh0oyFUTiPg53/zoqya/gzsVDo/vQZpSWZEQHXnYLPVQojKUbIOQrifG47jbDtWFEzOiVGYVK4mpVGIzL/LUxSEBKGJ8jJiTWUSA9yYx8HcatHEIl0QbwGq5ImdtVWyCcOxfFcnjrrXW/sXu2efofppAw8PRAaFN4AQIW5f3kSfenMShpY3GzGz0iqiI0F226iZHGUiWRcdyx4eUJrqGnARsGsNv3fIPEwDhgZs7ebmL86V9l3GHDgJEFw0CdxOipu/vHxDg890+8d1USGHu4nonU1ROziXNIdwUHhOczIWGwXgR1xuA8GfC12GxuvItJaCPwsT8OiEOG8RSM8jAh9GfomxGzGj0XL6XvMBsP4XzwVSYLVRJsHnuRMH5S+B801sW/efB/J/rbgdHzcb7efiz2w5gtHzLCrWqkpy8JRu7g81JucVGiQ+YoAPJSd+qDbqAjwwgJg48xr8XoOZFu1RAjapEgIKoFdqWtbNiKOGzOI6vnV0wNpmCnIDzvfRqFM3+6iLKk5QJIPqctvSS3/Hy6VWPHLTPwx2djw4WlyCyBa1CToFxw5pJms516M1/s3heMnsTSD+JPg6S6Ejde37CzNkgDkhmUVb0f8AWIitkYQpewY1m7o+K/deYvsw+2kNeRLo6i37uOQ7ers/rlBG51V8pqwzgM4b9M+zuRMGKVKwR092+MBVEYD2DMgJWHDYO8+5EYdmKo0x14OWK56pM2DPe5SDtKdqP1kryKhEEfJDZ4HAyDOIxq9IyJhPcFLN0EON2qECkShiK/LsybsOWoUnQJTcbyLESpcdQ1KLonZUZGkgqM+v7d5EbjsTaQq2BstQ6lJVUGjb5nMDy7DkMXqQxlAqJVktGV6b6rr8OUWoZBOd3Nn/k1xn19xr+4UtSJxDH6qYTniep8BhUmdoSnT6490dh8E7YYJR1VkpCW6KmMXfe3Rmc9Mrqwr4IhbULtUSXRaxNM0mFxuJvXE38n7HWtpi3l88WtqltdPJBhvIFKsl+V5DHcziFhZHkex5HVmZ+UD4D/1uNU5RF1vkf600vyaARusWs4NaRbFYaxKtxnUW/9GXwqsaZEwzmUGHmkY8Nw13AiPbfxMeZ9e90PI1errl+8qVlVP2Rkn2tRLu130DzpEa3ZPiSBtytjKE7SuA/AFSaQ3UkgRKWl7naJe2aIIrd/GdengVudDXQcxlkkANci7ELXP8FiqJvuzqApDW4TS5MFuRpR96Cz5At4Bo6CBGdP5HoRdyK/EZ33ZhY7qVu3syJEt7MET7lewN25YrASSx0/51i9is/9HDP7FKqAM5ZEegXEbeyDYq4vKL0kSBihkrCiEgu6w/0MM+hd/8k1E6hSxT7iSsnDMXPNxkynB0FiCLcqhDC8gU4T+2HE8nakgbdgYBKpc8QdXx2PqNNlGD3dRNdDvA0JYw8RmtowUAPWEUyl9+eWe4iOJTR8hNiVMvkDK0KliTqVsRzeI7FSv6CgHmssnjyiRPGy8I4mr84VxRp7lcfOnyaOhDKxsAtGtYG2lEZWr0/PhMijanYclcE1OT+CCRzcS/0YmnV5Cp9c1wKTLPalWLiGHeN57BdP4SUJhsH7Wnsthk9Ut61f0P3NGOAWFf6qFYbwv/I07x9b0zhrfDajgl2LSuLmPBqGZUYjMDBf8U7yPo7UZhyFWwLeA2MPtyrqrtKJxxwMYz8qbjCMR3BRA0vHnIcA+vDwP9R56xZpahP2get3Q39+vf1RJIxQSSjwLT5klHEYlWEM6oZmnW+quDHcYA4u+6E79WEZhsvby56esbx9CXEY47laVUSJDtdzuR2iI54Fk4iRWHciTxTplGsrArCJgOSz3+aZd2jDcLXqmg7DMJ/ErGvrOcRTidJgnKuZLddflYFYxkHEhjcY0TRO7Xo0jYNHQQTjIFZtICQan/0tuBSXAbuw6NO29oudPyQ8GwI/zmxmII4Rjs4qzooiljOSs7nL0LX0O/NqqDO68grsAroYw/LO+DUYum/HHlQjI00dogRw2y+4zwcGV6SbsL2QblSoMRiv4dVR3XB3KaWAaxiX4n4YPSmbdUNoBJhtJ9pUG4bBaRKQbts7voK0UwK3ZEgBVvooE9Cuo0qiGL2KiEdXp97OYjXtBnW5P11BfKfPMAvtPwdeQqICDkpAwt7xe62B8iaiZT/9y+y3yvtZhUoYuM1JRn3iqGPG4IzKdDUSiEvu3abApfO+7/SSEB7OOJQaDKVOt2oaPY2e1UuixGi9ujmVJo3EdA2R4f1TvAfri4WHxLXcyMShelnhr1fMmBoZpBGxxnRcfxdxGJ/CFYvdSRe7TidhpDQpc/lhicPQ8K2X5EuEhmu0rZ40ceEAjN19WFQdw0tiF6nkw8Z/qk2ys4P0MzrqmcPTO9GfX29/xM8MsPhMmLtaNSM9k2HUaqO+1ujZTfVJ9wADXHT2EJGe2zjnJsB+KrHGYcgwNCNbCb80WvhB6TsJUIwupZqeGfk1r2Vq+5yjvGn8gXc84yq4xeBZKRWZbvsyAU4RGl4Ct7BhSKAyDMXmHyGaHoLbT4KMV/G3CSu58QUSZYWo3gajN53JDLRRbFYVuAWG4W5eyxCXVUvsm7OHS6737cBSjh7rLB+qCYFKwSwAhfEKIraz13nsKK5svAaVQYYhUaiSVKLWsq8ebZ1GV44zU+l2vQF16HpE4thohlWZAsS4hIj0fD6JyLUlk+jxV2PQ0zCpyhVeEgHH4QpL97d84yX6irgtA5OIVONUj7TphMu2wD1iB8KGgZsZMVpX6LqrVGFwR6JajDGDRpwJdce+DqgiB3Zjp3lR4k+1RJgq7vvcZeqfQkL79C+zH8gkXhlUjvIqYZTGkbB/KIzSZezXwFBVWYzE1bVqPiWMgA0u3h+x6M6QaqUk4zDu+pW0M7nFYKiY5DfuwmAqPUjPIzGq8mgfcS+UCRjjnUTtGiEanhtRlsOwcLci0IjrGg9R2chdjbyrUUeMCtWGEWtNqPvFR6abbX/l/hj5NbnPxloSAreWYRgXpzgqwzB6dydekr3PTf/E8D/pxXalGH65rHRmCpAk8dL0p4TxiN9WnToQVXwTt2r1kmSF1FJe2gIqSWShoJm8jp8I2HqwfFtVhrEelcT9MNoNdKSw7F2eo5rac7usLFGPkpHT0GBtqmaa1/7gUdbV5ZptHEaVMMhscUVkvQ/P/BMEw3JiiUN9/yaiNydZSKaYXyMEJezDeBz2QrAatYzKcza9GeRyz1AjImUgws0+HoXADVwyutGZVv3dJezOXCKverAelzcwTrpZinYJbShfYFbX3rCEwC1nYccfH1RCh9dD4eweG+kwWzmzG7vh2gyZi0zQCMGXjDKFyJwNL0CU7p6tfUT1yeCw7vJ2ic1YgAMEVu2HIE4hzcigbiOq8l7WtbiBTquSMDRFcl2XEptxKUo3rqtwPc11rMFxoZo7R9lvY1DqClr7br0SqDASBtpXdFW7LcCWz7PO5wrqIk5GfV17iRLGSVTFg68YOo1H5nqlPyQGmIVxLzLf8JJgYzAOw5iPQ3sgRmb5K1CP7JPGSVcdx25WtCuhKgXsh/D1TiUDSbXPCcSd2VSR0mMGVtKG7+0kxku9MceQsGz3iutYy8PK5sWojrHREXUbxq00qOtbnNIFr7RppKeLz9rQcPAjGQawB+66VV20VlE7ECiIOOEYBO1T2mgzvQf8p1QeNtCtw5vgHG9Pf0oYsWt4YRj5IaO6RZ8VDo5WJYmk2uDgefTfIu645a7hTz69q9mNDWNy0Ty3qgyjHOpUIoTVAfuOSJRsY7AEWiDxJ/Z5dC4duTH9KkyDA3GRf2GntYjFObcMA8Q2DsO9E2N9iCoJs6VLrEU4Z4l1VyPqI+a71Nx9EWL2oC1nMvXRV4j2e/7fsHlA5BdgGpsJ2vILYQYUrY29NmiQ/64cjRkHkVQxWN1Z5FQKWbw0XbAa614gAGrfTp6DXM6eeib0lijmyjAchH0VwZzptLuIoEZCRrAY9UU2ck4jpZw9PhK6/C7UoZMwLG0aRqRqmLyF5eOqJ+5i5VgFnVvuuVtXG8kKAR/Z28RivXt/E/2coKSlEIWHDKkub38elUQVaZY0CdjFan4savU6+o6kKtzFaZ8bweisHn/AILbxWzTa7EbEfxH37Ar20lAV3HDNOKt+QV6a8y8W3aFinUUK0bi5QnuK60IYf5W+zpHuQj8Nq89jmDy8J3fDcsXvli/hIoVxrIepGj5vnTFo8EbG6qIvVaJzwGAn6qaL1268hy/E3TEe2zkaQBYfAgf+qk8Gy7nDPKALG5NwFDW9d6xvEojnhjcakt37VXzxvdXVqi3D8J2i9r2BSvLGkEryk8H/eHmdn/dKf7Fa1UhP9/RkrPldkuENdLJ6JOhcelYB3Tl3OuBlN9JzNxLGxnF2DSfScxIvyWUYPcc6DCOsEjICjzj5Q0884nJwL2MJo41JvnAQMLJyL1JC5pGsfGKWegQ5kME9J2/9Jdd7pO5rkE2lMH3yxhQ8S8SfW7SpIrjz0c3Mdhognc3cVi1mb178NCqFKskO7BPq/O7yNIm94XqXdW8mUnAzM9liZk/E8ugz7SseyyhC9IVwUtRVbGcvDmarZ76PSw1V5zTeGFWRz7laVQkDIo12GVBAhsEZj+CsLShlJq6/kAgkZIkyNiqGSRh/sYeQ77OnbJ/oyTUYPtHlXXdyJf01iGxoxoXRuNTeFa6u+lTs3oLx7x4ljDB60gnaF1laleTfITBiONzQ153Frv+s3/9AMkPqWaWYrg0A8du+S0z1z9ndF6faYnvuduZ+GkoBGmbdsFiGoCdHYpPxOmbtPQbHVZe3794jJAzGLAxbGwZ5N1yDyob36mqYsF4nVThhH/3hR5i596bSw9Q53sM/aqCdiahVXcWXX6eBONW3sH+Q3/HbDyux//bBcZnmqlpjX2QWSmyHYAaxSTTw/yyMNyQM+w9MKBLta8NwgaIfhBL/4vAUtEHlHB8G/s9SX9YWVdJ+wc9ooP6UHAu0v+uUO27BMKZRSYBDfJeks/gsa81fJAxB0j2iRhJqsg0Zh+GnEr8X8Rh7Xj/QbCQOYwsqyeRidtxyE2D+RUejnGWyXLdm0yT74Nh0rAVczTo0mOH2421GPn4QaYV5VEGdt/4ixPJFxF1WQhqeLaGJMK4APaTRExuGaz+mCCxybwf3RHCJtL589V91/toFv0+y+zn858RlSFzLibJcexU6MzYCI/+WrUQsZ2YKI5gMrnRT23F9+SFdgWSuftXtuBcm5EIkN865FwlD92KoQyzkSjgVKEVdQih7k0TD7AfBTxHMFTtuvZoRofZNg2ADQS9Copm8lsVbv7iIcY1EZKiSTuXhvmFVnVexSbjN3xuI6m5mcw9BZDU03B6Yb+AlYVk+BljXYcQu3ahwMrrNrFfxw8/LIFDX1sjYsp85fgHi/qUNzMB1JhqcZXYuRrvuzlxc5sK72ISo5q3Ap/0gt2CUAYxgGKpVEpzBWId3UzWw1rawkf5oy9AYu2KNUaIpXUbMRBmPRm2ZhoFWz//7LAFwc2xVwDiwJ115szumI53AEO1CjAMgVIITHoZ4u8rUlbd6c3SRHsVuo+1IqUS8vEeGEW7V6npnFIxfCUMDtaHhLp7L0X34+B/EUPtN720n/xKG3JRjYfoz0jMYRixvz0jPB1hLkqtVy8uRm/ofRE/qi0ZqxRef202Ay1oSdw2/dQ1b9MkwqluVOuKFU9z6JSIDgkyb9Rz958434b19MU/otIX6LEfhrMcMOWh/vRscUZjb/LCwsRJrZRh4NkQYfQ0GS6lb7yBeQbVgGvXBJc3rrjaKExEbo+Jq8quWxFROGW0SzsZGOe57npeLpCCCu+OUBlNVE63t44jcY+MggYMIDm9/6DXjkUAM73aRmFF+2g9OIw3oBXDHLddmLMaV6Szm8ETRWILNTOuMGyqbwAIOwsowdPVn1Yo3+Du0G13byQBGInG6gtQZ/HpsGAYyKUUtRbTXjuKaEvt0EOPsazCL/btw92HPuZG9LfRcuJRc9WgOZd62JE6DyNTTJVJD3x3iMoyfGor96LNSxmoW+i1bmYFKSlMR+GVGx4+U4R4Yu5GCHL9Bcy4cNHTd96Q0YKSrY5eghbHtT1/IDXt0azom4SmxxuIzZuqXiH/wfTrjG526ajJX6l6NN8O9XGXuE0gzzvKSp31XqlTVeA6pbBfEbj/NcyUTgGrNmo2sG1ovnIjNiHH4TsS++k40bmLfwrZz8GVgCLPV9nKBCNJZ9THyui7HXbdkiiGtUIVMzfevV+cVXPD7dgaaxJg+bPwPQAZ1VLqJbr1r+tt1mtWqB/+C1apEevIKv4lb9U9bhkGXOfJtOAYPEkT3ONqb9iKSQyVxeTvxGNWtmpsAb25WIGFgy+elU0sgOqeo0B/qKemFBqK+8mS4Se/IbllfWO1VmzcemB7ZQvMAVZtrkBg2MbNqpDI0fJR85nL1pME17k3pDKt3wEK6NFUx3GPSNSOqGFr1PSRMEeQ1XIUud3YHaxFUYtH+oTjrYi+NgUtkNBBClXgkXhHFJdXaLNxM1zUER19DpIVo3A/TJeXtjlsyDA7tEOrz7v/oUuuYtYthULHd2cz1DntfwIgIsWskVVQPuIjc5HXGd0ewDZtyHYwzcIafJ+LrLj0A0R3EpiND2Iy05DdpXUcSdpwCZD0XGnNduSlzcexKa8JNVcddyZzO2r4AACvqSURBVN3oRluJ0pwb5xoODV+CV0BEYJP7QBih+dqO9IC4B8QUzCA2Ksb74AyvXSTUEesWhJwcl8xGwqsh1rotXSKuOrD3ea5haMLEAhOoRRFgd4P7bPD+YWIyIzcX9tA25GpiPUMvE2OxBzd0uLgpr/t5LePQaOp7jW0JUJUEg2g2wzj0fGmfcqd2d9l6E3pyElJikVfYZ/HvUz8H08Aw7v6ierREPonKr8i5hmjvs6nO/KTwP2Kcok06/j7ozw10HiurVe37fS4+C4bBTDLvuEglIT8gyN+a1zvXkvw5a0m2yTBey/0wIg5jouyHgUJe+lqLJfQ77Chq5Sf4R7QjkuULikISOvmz/YwNqAYccvKC8rnSQAaCUYryzvjG+0s0IrU0bL3aFc6eMAoxFyUZ8g1tNaMglIuu1oMo7s9QreBiisZPP+Z74oirTRU7naXItwIXI+KrRsKVBBbpQtPIJXIp0Xh2WjO61FgHw8bdm8Edv2JnJgjPHae+gCvTvST1NlTDXjApYhhkMC5Y4qXANEYjRN09Jd5COnmLjVhOYoiVoP04svYWm4xXxUlX7GWMxZ29I1oSWOQaEfp/AY8EBmCZzlmYqJ9MlNj9poffW3H8URmDeItgKj8RcPzgaHgExHwJz8G5K5Yb7y5fY0h5fnJAZhPbBvDM8bt02/HL0GxPr4PGUL0JbiTs/hLLYBZ+4kEJQKbBKwkR3j1LhPc40sUoUoYPlNYMaT9zLA3RMlUxQWSTscogjLFQAloO83MHc2NWfNf+hWEVacAAPt+nRlBxw49Qu2zd3cQsb7ncUMfO0AaqSOyQBaM3GvgE2wi4zaIMaFZpjH8V/i6b14Y0rt3Drgkt2vDbLu4Gf+xAbprjOINGyGCemi9wh3uR6P3gv0Wt7P3S3y5VEhkGu4bb/n3uuHX/HxAa3o3DiN6Lm+Roj0yM2/YyLyLSk/0wZBi6VTfiJdmyChvGEj8zMIl8AaT4b20CYnAEWLh1RGVQcgwp16OcvJRRlNeQ6RaNDFxENwY5fNQyGwDtE9v3iGKcc2SWRXQvXCqAynUsLeeR97VA1M6z6BLIH+dsOG5CN6aADGkxsHRJdhrpsn3zK0k4A8UsJDFYX0zRaTSMSM8auFX6qxrgNnTGI7y03b4yFNoIyz1qiuqKorV1acjjUfzV8Zsik9FmEfAng0xAYg6pR1EfAmBIQdSmXWr8uS6m5DN/Z/yB0I6fVJFc4tAIrA0oXK2kaxyUKKO/EGzUV8ZvfssuJh5iMbYEJYXY6xI4yVD8oJNfO4tDYHrJgGLEvo+WoDrjt0Iy6lGTAevW1rthffEOGLefP3CWCthQb+CC6kdpQlhN8D5dYOhm1uaTcVledSa+5RL4EBjSlqvwFxgxvVX42yUO67Fv8f5p34LiW7T/IeK/I/H9C9wYo822h6P0zV+6/dg13MAtVBLrSrcqO27Fl88chHXkMY9h0CDp9XH32jUkD7n4DONnd0/PDA3fALdXJUmAtBXURkjQpiC4k7SyHWEmHNuj3IuMdoT/paqayZQ8Eo0KEviYv59W+9EcomcE6XAT6gxnxVS9JnGGGIJOoms5/s23jTSf/21sGOjOSkK1nOswDDDTyOj+ozELUt4ZUuOZBG6dMcAcPrApsAQkAa9545c4JQRhomFUEZs7EMu34BX4xc8Hgb+qX23HeBbHqwpjX6PfNsLhO+++f4navxHG5rAkPPNHWa7fz/u3jM0JU+sOZiTsTGSQYapz/PyLJJLr+JVULONZoqOqKC/8UyUzxcOSebwT/Gs+z/PHP7/9Ni8PfB/vZ/x2+v3if2UYrVsVleSBb/PlMzYBriOvfWwZhoOY/zAzJWi2l+Xt8ZmBPUoYW5utGD0nl2DD8LskFdJRC2gQb9AaK5Dz2trCxhBv0jeULdcX4H23lPfOaaJcQNMizpBkgvdzlml4Qz0W/Bi3vwmG8bnf1kuC6xMRODe5YfUponLsJ/qUxkaiE9HlY5cwh/MzNP4cyyf3/X9cx+/y9sEGOqok2jDqnp6VMpNOYRghWAVqFvwshJcZ6oMah7EtVqvmpxK3hlu12DAU5SBW/wkY/3vpKTQ+iRo521koOGg8sfbhdpLFkhayW3AAM7VHN3f32no+7u27J6bL23WrGvyUNgw9HhhlkTBcR7KL5fDqycZ2BCzakedFd8zd6/8Zxv9Jf/8f1/HHfhhDe3oiYdyPW3XF2xo9F0a/iogubzfSs37IKD6VuJodt7BhrMSG4a7hhVXMYwGKgMoICAb8BfMg50A4rBTRbd/nNWQrhdmWEdVGKDbgKZlYH3Vrkmt9XNp3mbffJTHQKEKO0Xk9NIy68e4rT7tPp14QjK/nf/bG/0l//x/X8adKUjYBBh+/FRvofIM9PWUYdSIWU6W5OLiA2oYedajOyydRSR787g8iRHzvXrwkE0R6wjA2LL42VquOusFAW6ZDukWySGUy2hxky9tQKVoVQ7Zj8SKJWKXMxe8syHaiCX9CAbUCbiIxBpBlowITfUa6FsRQgcxfsudl3pPnp9G+6z3uIvbB73oa21G9JC7f1puw58e4/nDB6d0xZiT7ZH9/NsZfQR6vq95wVqX8acC/Ntm3X8ikAMTPDDwWnxnYD6bNN3pWekmotTaMCsz2PA+qulVzT8/8tuoGArduk2EsrSqJJmI7MpANgkYl/rAvFHuFeRANJIKhI/LVlELgYhE5sytddlaueYCHa1DTx7z9yc1805Sl8q7+NI7DxW0eRqS6XsIl4i6HvvAWRkpVkp+x8QeCxLA+me//4zr+kDBgGC5v5/WEhPHAt+vis0BRfnwCzg7cqpmQv5mpvebiCT7G7HdJ/NzAbnbcMtIzArcmYBiGhrMm2PweSQaeB8xDcSzJvz7nrtUpZB/k1eQOcwnWwmPrG2X2Cc+v9xCQW/Llvbwwsmc9UQMJHKZ7fNzadw2GK1UNWtLDEq5NxucWdcZiHDtEvAC7b83haQkPCWP4WRp/vK94L/l2Pmnv/+M6fj8z8Bg2jDenEHWhrz/U6Hk/XhK26AtaahmBpFY4xvwHvlIL5yyXq1Ufdnm7G+i4p2fZcatd3h4fMopC/FBbW7awEQiDlWL5LFiBebhNHkGJWsY6ytHWkVnJERdRVc1Tz21iGV1b9uPT/uLls7Fhrdvr6yGJ8TD+CGwiqtCgqfgeqO5AQdWO4Wdj/J/09/9xHf+OE7lreO64pYRx8ceYC1V1JIwOclYa9FwzGrD18F/yqUQYhqtVw+iJl8Q4jBV8ZiBXq9bcEoNiZzkqLyChpet4ZI6QJwbEUapQ5qh1hH6rTYOsCiWaA31Wc5Qi1FWv6pOPV/tGAo4THVpXQmZ/scvgqIoAJuIlDBZyFKHXcxUjEn4/A+OvAmUwyng1ju6T8/4/ruOPDxkdxOhJpKfvxh23vvPHw8vbW8oqAka8vvanPq0J3Me3VWO1atowJsfZBNjFZ8RhrDQOI7wkNUCnFLR165p/kOb6h9ESYhuP27xcyLwCj0oit8E0vK1CSrCMjMNI92MykPSplAbbOud1oG+/h3+Pfy39VRuGgVtQGnt6Ehr+J8RhuGu4B/QSnMTTEMOQkCAy6SyOjtRR4zCqW3UjKkl8W7W4VQ2pldBz1SKlJfLaUJxNMAuzfzTC7GlbPuMImYDy3fbpHPdlBspsUUfUzb3dy84WWaRvv4c/M4s41ONfoa0CiyC0S9CfDCM+ZMR3SYSdgVuxCbBrSZypO0cyjJbwBk+Gk9gPgziMB5Ewtj95CRsGCxlq3wa1ZIp1JdkPcsRVbcRetm7SLF0feZer8RIRWjNIZhv6HdRekzOlb7+Hf49/8tABhcRVIbLYcSs+M6CEkTYMIz0H31YdUOOwhFHpTPacU3ebkp8Z8Ovt9VOJxGGs+Wp+l2RiHYyIOAyOnPUzbiBtDcHs267aUY+QJGzGa/5qeg6pmxJZSqZ8mr81HdkELpLAIFsU7ds3bqWHv3LrAL+6WNXjX5FAgI/L2x9n8dmx2EBHG0b36+2VzjgDTBhGbtJXJY8uUEvWIOiwYbBruBGf7ofhd0nqfhir4mPM8vDBYT2xHH1gdMge+qaGDtQO0iK2inRdp6oiHpkzVpHAFMxX07pIkEiRKVEsfvr2e/j3+Keq3hr9Lkl/Bm49HoFb7ulZP2RU15J0ac0qOJLMPEGicSrXLenVDxkpYbzAatXcDyNsGItL4Fa4VWs5zxxSfE1yTwWJviR7Ie9wIZqcoH0SGUouy9cSjjtYXJk3s5iJebRThoUsz1EvPfft9/Dv8a9SU5BIpT+/fObis+N+KhHS+dY3uhJGocVKkgOGESTW/pTn7b0BW3/Gfhh+0GjPXiSMMQK31tbvkkw24y4sswceFlZkiHVtsoIqBcTTQNy6zHpA1eVZnOSMVcko1VGn27z5JP7TVkpFmXNUtaRvP4HYw7/Hv/dAf+FWLTtuScF+vd0dtwY2DBIlOx62EsZFZB3yf2EA5G+9JK1KcktzO7uGr5/ohIYnumbtYeYciENRk43GQMgCt49ehBjglfeFsZDZ2IRYBg9XUAga9IRsHObPZfJ5P/xrXapIffvJkMtvD/8e/xagP70kg+XtShjEYfwRDGPVQqtVc2eRIXpL0s2kIFaIVoaRa0mq0RMbBl9vrwxjpHhJopTUDa0WTys3wxJD1lzSSmMpO3jTYSNdxhHpAwlDDlK0meEy3vXt9/Dv8e9d05+7hodb1U2AmYiVMOqXzyr9S1ZBqsMqSZdVtFm8CNvFQ+zpuf3pnRg9y8eYXXwWcRjsuMUmfZLzLKqBPoqUWKhP1YHJPi0lSfDBo1KfiLpDZVHiiEzmSWZSupgM4KJnFO12l2vL9e338O/x773RX+yHcRgbBnEYUtF9RSVZvZI4DO7zSGILlaTLRZIKzVIyRj6/S7KTOAz2w0Al2etaEr5LshUJY+PEtbGnp4vP2jhPiwYBe+ImiN0ErsuzuDA9Hhf1Ih46NZT2VZrMEzEaCYR4UurwcSxGiwLBLrK98jxP/PbtlxcCLApsevgXvIjTJxv/dmD0fJyvtx/T6IlqkB8y+v2M9IT80nzgJO6l3OKiRJ54iFzl0J36oBvoyDBCwiA0XKPnxOZGt2qIEeSNIlIylcbS86g7bktNPskjq+e3ZQp2CsIPAic97ByZP11kWTJrL8+VYKjOSAwPr8M607ffwx/JNlAoEUbMiKPHv4RD0AoUo5fk0QjcYtdw7u8zNJy1JKtXKWEMH4NPJbbpgjOr6pJ2Bm759fadzb69RSUpi89W1Q8ZdYtSi3yj2jbzswCdepE2ZAw1uKg1SIRq0skX/eK+1N0ucS/9lbfEZwvtc9/+4NX18O/xD5J4N/Tn19sfRcLI1apzrCX5WoaGh0oioQ1oC5rNPT2D1uYRXKHJoEPdqQ8TGr7N5e1ltWp8l0QbxniuVq2CQZdwaUr7Z8uCHEAwiRiJNB4yRRYZat+SJMBYgimYz36bZ4Ejctfy9Uy+vv0e/j3+vT39+fX2R/zMAIvPpDFXq4aEURhGh5yc5AsJdlPnEyRZXHT2EJGe2zj7mYH8VGKNw5BhGBpuJfzSaOEHyQiCQ6E0GEeRWSJfeRhEHb0Iqi/lrYc/naPRxeAWg2cJAnL43/aylqi3b7+Hf8UzcShwg/0BevxbmP6UMB7xY8xTrCUBYN/ErVq9JElQJBb6W0AliSwUNJPX8RMBWw+6gU7YMA4260toeLuBTnxFp2T3LcUhJXvjK0tTSaZn2kXEblO17Lz2B4+yru6skXWWsoOMJPTt9/Dv8e+d6E8J41EjPQvDyA8Z1S36JKjB0aokkVToePA46dcifozZXcOffHpXsxsbxuSiLbkJcHWryjDKUT9vaHXzw6dCBVEESNEhGYr3HhSolw7Sr1mpMA0OrNn8CzutRXgm45t/9O0DZQDZw7/Hv3dDf7Fa1UhP9/SEnvK7JMMb6CSNYRbIpWfcil2FCOM8jwq7kZ7uuLVxnNWqRHpO4iW5DKNn7rjVVgshF0qPU628tjO4F7Ejr0nd0XEvM8ioArvXlVDsamYY8atgtNXlG2EV6duvL6MCfXAfsEmI9fDv8W/XKbwkqiTTqCSI7ulWHSw+S8TJ34ENo02txOzZI7mIe3k+FDtuEbj1+oFmI3EYW+JDRuy45SbAzvzkzXnNMlkuqmh/UjExOjX2rKyIW7NG0wu3XwwVFCQzcRkWTbWEe29QYfr2e/j3+FfppxJVS3xBk1LJfPoz0jMYRixvz0jPB+Lr7e64VeqR7oLUIuyyNtKtfPhalSQ2AcaGkV6SrblF32IYRnWrUmO+sKRrHTDuwGXarGeb8S7sE9zbF/PAAOYM2iAfj0OcHrz4KOQTH3WOKFxS69O+/R7+BV/Eox7/3hX97TrNatWDf8FqVSI9gds3cav+acswkuRaCoN4Jd8BMbY37UWUCJWEzwwYj1HdqnU/jBVIGGP8i9WiMdtTX1C3P9QT3CmlAi89ypO4HmqJG8umApKZ27zxwNxRa2gwShW5IxdppZ3gO1G0lOzbB6g9/AM1E6V6/Cs0JC25gc5jZbWqtHOfi8+CYSy0+Cz5heXiSOLN326a+2D8OWtJ3D18z2u5H0bEYUyU1ap8xqvwilqscIVBXXHFT9AvuXx3GjWTuZiQ0kfOkqo4Jil9RE4YRD43qjQDwchgJg+y9O0PwFFhAvASOPzGFT89/ANdevwDJ6S/XaokMgx2DZcd3OeOW/f/AaHhGemZGJS/82wYmRjI1l7mRUR6sh+GDMM4jI14Sbas+gpfb/czA5PIF6gU/A9tIyqoP0nsSdGFqMVY14d4lJOXMgolhjjmtZ/YPsgRtZInpRHVHW769nv4ixOJQeU3MIVrzv7neUxAPf4lfIBH7Bpu4BYqifSXblWMnqu0YZChA9F5DGP4cTer8RcPufgM46cMY4NeEvb09LsksUUfEkYwi26h7BLN1WVpdiflB7P5zkJ4KPnsW8x+vmOvOXlZfzMlEnhW6iJTSChk7NsHFgOgJaACej38XWsk5vX4dzH9VYbRulVRSR74Nl8+W1m+fNZikvhVVJIF8KxkS9Lcjkri8vb4zMAeJYytzVa+SzLJd0lW+F0Sp/egbn/wX8TU77U1e+S1teXGN6ZTJp5XySHzdEv53OgLUT64iUVwpaZkgdOVi5gxWtHG0n37PfzBg5iNevyDIDiSqhaiP5e3DzbQUSXRhlHdqkn/yWagu7qWJCvlt+Uc7UU8qnEY20qkp18+2xpu1brjVnWrFnIvxT35JMVAmi20nA1Z9XA7KWKQFrKjdQ0f3dzda+vJ+aNvP2BagOOph3+Pf29Hf7EfxtCenkgY9xPpueJtjZ4Lk18lRJe3G+lZP2QUn0pkA531EelZv3yW5D9cU0oPIRhU5IXbDYTDyhC6pXxeQ7ZSmFSUjNrLyVIDnpKJ9VG3JjmrrKRvP+SuZB49/Hv8AwekDI9UScomwNx/KzbQ+QZ7esow6kRsTmkuDi6gtqFHHarz8klUkge/+4MIEd+7Fy/JBDYMd9xafG2sVh0dZfFZW6ZDumHgtPLsnI222bzhkPu1KgbD8H+rVficBL+zIdlHWX/CAMLZlEi0DW4tGz/e+IyEiFTxPo82W73v2+/hH+gT66g/cfjnZwYei88M7Idy5hs9K1kl1bQ2jEpM7XkeVelWzT09DdxyPwx2DZdhLK0qCWtJKNOVDYJHSMBhXyj2CvMgGsgEho7IV1N8e5HRwlYb9aZUYp7C2ngQm/SY5GERfqps0rcPTHr4gxciRo9/QSCCYh79hYQBw3B5O49Dwnjg23XxmYTl4RPYSTV61oRMjhwlS+Z94hkWnxG45ecGdsMwXN4egVsTMAxDw1neblmPygq6xIvpInG3fU6uVqeQFRgNykvl5carlWeQd5TZP+yy3iOGxJZ8hZnYTjKF7HXfPgDhEC4ePfwHk0ePf5emPz8z8Bg2jDenDgVB/aFGz/vxkvAx5sClJK/EqaKRXPQgnhbC9LoNDXcDHff0xOgZgVuLi4QRHzIyZ6m9LVvIWNWADYKHuu2j5BG0z/MoYx3laOtoa42LqKrmqec2sW8/YNzCrod/oEiPf5ekvx0nctfw3HFLCePijzEXqupIGC2CVQrMc81owNbDf8mnEmEYrlYNo2fZom8Fe3rmatWaW/JPVSJqqbyAxy1d51vkt4qKPExDRuJ7sJCijlhe7wpZFUpS00wFxRy11QFb6dvv4d/jn3QRxzvQX3zI6KD7YRx02o4dt77Dnp5r2HGr0lY9d1SSUrmn+rQmcR/fVo3VqmnDmBxnE2DiMDYQh7HSOAyoWTJNn0YpaOvWNf8gbQ6j5SgGiPa1tnnL6KpeYgX8D15iniqk0FYInO2DZCB9+8KhHC1Ma0I59/Dv8a9Df9WGYeCWs/W33AT4T4jDQCWJA3ypSDXMMEQkkKxFuI7UUeMwqlt1o3EY7XdJJiHo1C0ikKogqtJAVBZnfkgPj0g0AquwLZ9FNhgA7XXbp3PcFwkks7X1RRO1fioOxkP+vn1g0cM/J5mKH3Hmp8e/BelPhhEfMuK7JOKOgVsPGLjlWhIn5M6RDKMCtvNgOIk9PYnDeBAJY/uTl7BhlC+fWW5wJOaalmSf9z6Pq9qIvWzdpFm6PvIuV6MmIbRmkMw29DuovSZnSt9+D/8e/+ShAwqJq0JkseNWfGZACSNtGEZ6Dr6tOqDGYQmj0pk6QFTeJsSydr0kShrdtSTxXZKJdTAiNwFWguAHrmTcRPFqt7V1aw1JwgSObvqAxL3qHKXe4WHznIpG4CJVEO/bByY9/Hv8ew/05/L2x1l8diw20NGG0f16e6HBQqQwjNykr0oeXeKt5Gpa2DDYNdyIT/fD2FA2AV7PBjqx+CxUh1oimUB+fKg1OoDI1CSnGDpQJkiL2CrSdZ2qinhkzlhFAg2Yr6Zl/clctJx4ZJm4LHd9+6pqPfxbrOnxb0H6M3Dr8Qjcck/P+iGjupakS2uScAQ5VIKD9KS7MCwkGdbs+SEjJYwXkDByP4ywYSzuulWjcCFX6ymXnlkwZr01hxfyDheiyQnaJ932LVdLiPdWiDQRLCKLmZiHlbX9thIOy9cG+/YDPhUcPfx7/Kv055fPXHx23E8lgiDf+kZXwigYU04dhhEk1v60iFVSDNj6M/bD8INGe/YiYYwRuOWnEhfnfhjjiAixwMX8FlZkiN1xZAVVCiiVQdgj9NZsA6ouz0palsq0qI6fWeqMUlzXcHIbs/5R1RIh4BEF+vZ7+IMIMUn1+FcoI+ljHv2FW7XsuGU+v97ujlsDG0bSVM7JRcK4iKxD/h8003pJWpXkluZ2dg1fP9EJDc/uZO1h5hyIw1GThB6MhCx0Oik727B9mUfc8eN+jLEMHgnELmYuspTD/LlMvqZ0z9almatvPxly+e3h3+PfAvSnl2SwvF0Jg0jPP4JhrFpotWpsAtwlti4Zcy2xQrQyjFxLUo2eW5AwWK1aGMZI8ZJETVI3tFo8rdwoF8wn+pKWfCJYRTKNTvtdxkEt1lAlDC607dG/aJFnhSi87dvv4d/j37umP3cND7eqmwBDSUoY9ctnlf4lq6AxEgrJtUlelGNAhtou3EBn+9N8ZiAWn837kBGb9EnOs2FjyICsJG5SmeyzlST44FFSe9sK6Uockck8yUxKF5MBXPSMwoPuxbXl+vZz6V0yaGEKVHr49/gnrRTKmk9/sR/GYWwYxGGY576ikqyOb6tWOk1iCxtGl4skFWbl/ha2glt1J3EY7IeBSrLXtSR8l2QrEsbGiWtjT08Xn7VxnrZB/XniN4jdBK7Ls7gwPR4X9SIeOjXYsA/iIdoF+TpRocFrTOJxLEaLAsEuaJZE/vftVzAUGAZABrBJ+PbwDzQDD0O9DcT55OHfDoyej/P19mMaPVEN8kNGv5+RnqBIdSbkpdziokQyeUh45dCd+qAb6MgwQsIgNFyjJ18+060a0xh5o4iUTKWx9DzqjttSU9ByXGf1/Mo4gikoWUD43ltT2Dkyf7pITc82kjFw7wxKmpEY9Vlwkr79Hv5IVoFCIkiiR+BIvTQ5sOkTjn96SR6NwC12DYea7jM0nLUkq1flruEBpvIz+FRimyo4E5QDKGPDwEvil8+2PbOz2ce3VY3DcLVqbgKcy9vjpdSi1CLfiBdGlflZgPqQBMQEGUMN7moNEqGadPJFv7gv3WqXuJf++q5DnbHPJU951LcPSHr4i4g9/r0d/fn19keRMHK16hxrSb6WoeGhkkhNA9qCZsP3mbQ2j+BawuNCd+rDMgyXt5fVqrG83S36xnO1ahUMuoRLU9o/WxYkAgeTCEz2XYZMsUD7liQzjCWYgvnst31c4Ijctf/1TL6+/R7+Pf69Pf359fZH/MwAi8+ksW/GWhIkjMIwOuTkJF9IsJs6nyDJ4qKzh4j03MbZ0HA30Ll1TY3DkGEYGm4l/NJo4QfJCIJDoTQYR5FZIl95GEQdvQiqL+Wthz+do9HF4BaDZwkCcvjf9rKWqLdvv4d/xTNxKHCD/RF6/FuY/pQwHvFjzFOsJQFg38StWr0kSVAkFvpbQCWJLBQ0k9fxExLGg9/9XrFhHGzWl9BwA7dWYsMYxa0aFF6IPmuRkusrS1NJpmfaRcTeLTuv/cEjX/9QwHNW6W+pNs6R2rffw7/HP2m4+h2TWIbpTwnjUSM9C8PIDxnVLfqkvMHRqiSRVAlu8LylQXfcctfwJ5/e1ezGhjG5aJ5bVYZRjlz3YRdTQhiIhNltozyL6JAMxXsPCtRLBzkKs1FhGhxYs/kXdlqL8EzGN//o24c5A8ge/j3+KaG/E/3FalUjPd3TE3rK75IMb6CTNIZZIJeecSt2FSKMc+Zof7uRnu64tdEvnxHpOYmX5DK+3p47bmX2sEp0ZcK2cp5HO7UxbulhxmDwrDs6ssgMMqrAYl0Jxa5mhhHWiMzSVpdv9O0XmPo6BHX8FAgF6OPHBz38e/zj26p4SVRJplFJ4C7pVh0sPgtEKT8DG0abWpEpMI3U5CJ+IlEvifEYe14/0GwkDmNLfMiIHbfcBNiZn7w5r1kmy7XVxkVKGEanuuVeFZfbrEPIPNx+MVRQkMK4YOVHyTm59wYVpm+/h3+Pf0FE74n+jPQMhhHL2zPS84H4ers7bhU6lu6C1CLsqzYSVL3gT7sJcFlLkkZPtuhjeftKJAwDt6wxX1jStQ4Yw8pNm/VsM96FfYJ7+2IeGMCcQRvOhKSF1OG1N3HOX+8GRxTmtubx3Lffwz+QLOaVHv/eHf3tOs1q1YN/wWpVIj0ho2/iVv3TlmEkxVVqDAmj3sSj9qa9iORQSdxAh3iM6laNzwzAMFYgYYzxL1aLxmxPu9JvJebgTnSeKr3sPInroZa4sWwqIJnZX/Pkg7iK+2QxkAgVR92lHR/27QfAEnI9/EGIHv8uRX9uoPNYWa0q7dzn4rNgGAstPqtuVfGLQ3LMWapQdklzLcmfs5bE3cP3vJb7YUQcxkTxkvD19uiQldQjKD1rNCmu+An85d7HEQVSm4LK7U62r4oj4St9RE6UnnxuVGkGopRKOVlZ335hrMLDQ7ApzcVFD/8e/wqNSCsFK6S/XaokMgx2DZf+7nPHrfv/IPf0FIUib/7Os2FkIs9rrvYiIj3ZD0OGYRzGRrwkW1Z9ha+3534YY1os+R/aRlRQf+xasdPaUZoIBmAouEc5eSmjkF3E0XalXMRpkCNqJS2lEdUdbvr2e/iLE4lB5TcwhWvO/ud5j38AokN/sWu4gVuoJNJfulUxeq7ShgHAOhCdxzCGH3ezuobkIRefYfzs7umZoeHEYSBhBLPoFmpfWV2WZndSfjCbfQ7hoeSzbyF9+I695uRl/c2USOBZqYtMoX6QsW8fWAyAloAK6PXwd62RmNfj38X0VxlG61ZFJXng23z5bGX58lmLSeJXUUkWwLOSLUlze1neHp8Z2KOEsbXZyndJJvkuyQq/S+L0HtTtDxJFTP1eW7NHXltbbnxjOmXieZUcMk+3lM+NvhDlg5tYBFdqShY4XbmIGaMVbSzdt9/DHzyI2ajHPwiCI6lqIfpzeftgAx1VEm0Y1a2a9J9sJiT5sCJknf62nKO9iGc1DmNbrFbNL59tDbdqjfSsbtVC7qW4J5+kGEizhZazoaEGo50UMSgVsqN1DR/dXnWvrS/nj779gG0Bjqce/j3+vR39xX4YQ3t6ImHcT6Tnirc1ei5MfpUQXd5upGf9kFF8KpEPGa138dmi+uWzZAPDNaX0EIJBRV643UA4rAyhW8rnNWQrhUlFyai9nCw14CmZWB91a5Kzykr69tOSFMyjh3+Pf+CAlOGRKknZBJj7b8UGOt9gT08ZRp2IzSnNxcEF1Db0qEN1Xj6JSvLgd38QH2XeuxcvyQSRnn75bPG1sVp1dJQ4jLZMh3QVCyNSKztno202bzjkfq2KwTD832oVPifB75xI9lHWnzCAcDYlEikUZ9OswBufcd23DxyERx4tmOp9D/9PNP75mYHH4jMD+6Gc+UbPpKRkLjytNoyKTO15HlbpVs09PfPbqhtYrXqbDGNpVUly8VlXNggcDdqlMveJCwKWOSVratvyotJ4JHITNolMzK502Vm55kFs0lMrshnaqLJJ336Faw//Hv8uTX8hYcAwXN4urSlhPPDtuvisQ1yykwHDMGvlI5kpU7jm4oln3ECHPT1xq+5mxy0jPSNwawKGYWg4kZ7m95DMPbrEi+ki0ts6vWt1CmUIo0EZFFQeQ5NnUGaU2Y8+RuF285zCTIKdRIVZq78effsVDgPm2cO/x7+gl5Y+uCv052cGHsOG8ebUoaC/P9ToeT9eEj7GHLSU5BVIlSpJraTzIJ4WwvS6DQ13Ax339Cw7brXL2xtUkm7tbdlCxqoGbBA89Np8lDyCojwvjMH24mjrSOZRq4+qap56bhPLINqyffsJyx7+Pf4tTH87TuSu4bnjlhLGxR9jLlTVkTBaAqsUmOea0YCth/+STyXCMFytGkbPskXfCvbDyNWqNbfkr9pQjsoLSGjpOh6Zo4pKXKchI3hKNYqaI5IZqwKITFGVw/prK5GnrU+2Up9EorfJi8jYtx/gKIARcj38Yzqq+F+QaYBdwEv8+RnGv/iQ0UH3wzgoqcSOW99hT8817LhVaaueOypJwSFP9WlN4j6+rRqrVdOGsXr0+uaGFZ9tVi++slkxthagSqQ1QKgUtHXrmn+QNofRcrSzE3j0NPIW6g48LhWQHi9tqD5vfIvmzwd9+z3806dWEG4IXzpI2OPfEP3tOf1s8+zxv2tOXTgKkDB6ugnwnxCHgUoSh3QpLD0NbBjcCUgelGfcFErlUY3DqG7VpXPrCdq6qblsfE2zZMzdhXOmkmj9H0VLca9DNIh0csR9aSseWgQPCNfd9ukc92UGpIo47Jz1eir1mO6lv337QCbgXEBernv4J9KER67gTeBaj3/NkfO7mz2nn2nOTp8M+jNw6wEDt1ZA107InSMZRofw6rPhJPb0JA7jQSSM7U+mDaOZXgyzWN9MjC5tFo1MRMVWbbnBIfmmapLPBjniqjbim2vdpFm6PvIuV6NSE9laM8igkfZqUHtN6tvv4d/jX6Ulp9NKoXFVHpyZOs7mOa83UzPng3C0YRjpOfi2aq3BSShcEJXA6nmQoaYMvt6ei8/eOnce5uMKVcK2ERmyM3RHjg1XqgFCls+noi6PSoXJ3fPG9CpH5JCqBlkyc0qDbj6teaI2KhqBi/TtJ2R7+Pf4917pb1bV3k2SCxV909WqfpeEtSTtUYgXhpGb9FXJo0vUNbNpO17a03zvn7c1O3ftbQ4cPtacuzDV8ivtF2ULrVokGs9duOhMZRNJ9SVPbYluQvQRW8UTXaeqIh5JAkUvtwmSM43r8jzOffs9/HMLt8Abf0T+Hv+ctt87/X3tq59r/vvv/mpz2fKlAc8hWhtIGCU5TjVLgl4y3f/GkeZHL77S7D9wqDl56mwzPTOTNoSosvsjSZdOelmrUqSI11iInnSTZBTm8QXHkziVa5/V9KjShPSRyDkKXzFT58g8UZeXpapobNBKpPft9/Dv8S9ppEt/d95+Y/Olz93ZLFmMqaESUCXJAcPo0NwgW5t4GiZx8M3jzekzZ5rz56ZgGCgBEmQQoRICIk0whVLYNxHr2uyKtoTOgaThzuH2IdlHXg1y8AxukPVnlzVxzFJnlOK6hpP37Sd8e/j3+Pdh0d8Vk+uaq66abBaNDb4EILFK3q0N4yKyDvl/iMwH9MzVRfnnPR0wgk4d8gVv63lwcXF9ffvAqgO7Ifj28O/x76JpuIMhlcDquTyqt/X8PuhvRBPG8PTfoWdpO2b6RNy2nU7X6uVFz+YlzLuNYpG2wINuUt++klYPfxGmixcV7+r5omfzEubdRrFIW+BBN6nHv3n4B0CETzm6oDKpe9+9vkT2SM587W/IMSV/PV1SepjfRve+e9233wF1heoQUHr4K8wChR7/UqrvYskHoL9QSbpcNJmEtRdxODCvRb9otgrKg9ThlG7f4tqMvrxLiNh9+wMu3sM/kAV86fGvpR29i8n+ImmY2vJZPBia4DMlfgOk/HwI9Jc2jGgzG24vban2rNP2pS4t5xFFhm4yvft70eO20TSEBnzayrolL309VOfQzcVlLnrct8+LCyAkyl0EoIthOD9lqMjQzfycF7HETOjbB1Aff/wffCqxfa+JOHnbefMlufvUPHl/iYe1Th7nZwEqB6q1LGS6qs9q7Z4pd4kmMvkSD/v2EwKAp4e/proe/1qECFi8d/pDwsg9PYPkCt1VOqvnSyTXx+94HirvjUd9d12WM5Qxs/l7ieRBhne4Girft5/Q6uFfsCaxI36HEGWAVJdIHmR4h6uh8t54/E8K/9at+rZUWY0kDHYhG1JCYOHfAbAW4madMoOMncRy2bcPgoFhPfx7/AMNWl5zMaVclDIgqw+H/hZQSbpE6vXC3Rt05KI+pkhQkxcsXkq/HQEEk+jb7+G/IAK97fwWD3v8SwgsCL73T3//PwK4RHg0YLeVAAAAAElFTkSuQmCC;" vertex="1" parent="WlUhy80mDrtcPT5jhz1v-37">
          <mxGeometry x="8.350000000000023" y="393" width="71.65" height="71.12" as="geometry" />
        </mxCell>
        <mxCell id="WlUhy80mDrtcPT5jhz1v-52" style="edgeStyle=orthogonalEdgeStyle;rounded=0;orthogonalLoop=1;jettySize=auto;html=1;entryX=0;entryY=0.5;entryDx=0;entryDy=0;entryPerimeter=0;" edge="1" parent="WlUhy80mDrtcPT5jhz1v-37" source="WlUhy80mDrtcPT5jhz1v-50" target="WlUhy80mDrtcPT5jhz1v-39">
          <mxGeometry relative="1" as="geometry">
            <Array as="points">
              <mxPoint x="44" y="110" />
            </Array>
          </mxGeometry>
        </mxCell>
        <mxCell id="WlUhy80mDrtcPT5jhz1v-48" value="" style="sketch=0;points=[[0,0,0],[0.25,0,0],[0.5,0,0],[0.75,0,0],[1,0,0],[0,1,0],[0.25,1,0],[0.5,1,0],[0.75,1,0],[1,1,0],[0,0.25,0],[0,0.5,0],[0,0.75,0],[1,0.25,0],[1,0.5,0],[1,0.75,0]];outlineConnect=0;fontColor=#232F3E;fillColor=#7AA116;strokeColor=#ffffff;dashed=0;verticalLabelPosition=bottom;verticalAlign=top;align=center;html=1;fontSize=12;fontStyle=0;aspect=fixed;shape=mxgraph.aws4.resourceIcon;resIcon=mxgraph.aws4.backup;" vertex="1" parent="WlUhy80mDrtcPT5jhz1v-36">
          <mxGeometry x="30" y="539.5" width="78" height="78" as="geometry" />
        </mxCell>
        <mxCell id="WlUhy80mDrtcPT5jhz1v-49" value="" style="outlineConnect=0;dashed=0;verticalLabelPosition=bottom;verticalAlign=top;align=center;html=1;shape=mxgraph.aws3.iam;fillColor=#759C3E;gradientColor=none;" vertex="1" parent="WlUhy80mDrtcPT5jhz1v-36">
          <mxGeometry x="173" y="538" width="42" height="81" as="geometry" />
        </mxCell>
        <mxCell id="WlUhy80mDrtcPT5jhz1v-51" style="edgeStyle=orthogonalEdgeStyle;rounded=0;orthogonalLoop=1;jettySize=auto;html=1;entryX=0;entryY=0.5;entryDx=0;entryDy=0;" edge="1" parent="1" source="WlUhy80mDrtcPT5jhz1v-3" target="WlUhy80mDrtcPT5jhz1v-50">
          <mxGeometry relative="1" as="geometry" />
        </mxCell>
      </root>
    </mxGraphModel>
  </diagram>
</mxfile>
